<svg width="1440" height="1024" viewBox="0 0 1440 1024" fill="none" xmlns="http://www.w3.org/2000/svg">
<rect width="1440" height="1024" fill="transparent"/>
<mask id="mask0" mask-type="alpha" maskUnits="userSpaceOnUse" x="495" y="337" width="507" height="606">
<path d="M695.5 337.5L688.821 350.278C685.637 356.37 683.645 363.014 682.952 369.853L680 399L512.896 564.4C495.606 581.513 491.083 607.713 501.634 629.633L619.5 874.5C590.851 883.026 571.685 892.193 562 902C552.316 911.807 549.483 924.92 553.5 941.338L672 941.5L684 904L688.071 883.839C688.727 880.591 691.892 878.49 695.14 879.145C697.109 879.543 698.748 880.899 699.507 882.758L723.5 941.5H746.5L727.5 853.5C721.577 838.389 716.577 826.889 712.5 819C708.423 811.111 702.767 801.989 695.532 791.636L598 604.5L738 425L867.5 884.5C839.947 889.403 822.447 896.07 815 904.5C807.554 912.93 806.054 925.597 810.5 942.5H951.5L948.419 884.562C948.331 882.907 949.601 881.495 951.255 881.407C952.521 881.339 953.692 882.075 954.182 883.243L979 942.5H1001C988.097 897.134 979.764 868.134 976 855.5C970.075 835.607 947.5 805.5 951.5 819C951.5 819 935.086 757.646 905 678C895.264 652.224 878.374 621.829 867.639 594.518C848.946 546.963 826.273 489.286 799.621 421.485C794.819 409.269 796.748 386.99 788 364.736C785.508 358.396 778.508 349.651 767 338.5L695.5 337.5Z" fill="white"/>
</mask>
<g mask="url(#mask0)">
<path d="M695.5 337.5L688.821 350.278C685.637 356.37 683.645 363.014 682.952 369.853L680 399L512.896 564.4C495.606 581.513 491.083 607.713 501.634 629.633L619.5 874.5C590.851 883.026 571.685 892.193 562 902C552.316 911.807 549.483 924.92 553.5 941.338L672 941.5L684 904L688.071 883.839C688.727 880.591 691.892 878.49 695.14 879.145C697.109 879.543 698.748 880.899 699.507 882.758L723.5 941.5H746.5L727.5 853.5C721.577 838.389 716.577 826.889 712.5 819C708.423 811.111 702.767 801.989 695.532 791.636L598 604.5L738 425L867.5 884.5C839.947 889.403 822.447 896.07 815 904.5C807.554 912.93 806.054 925.597 810.5 942.5H951.5L948.419 884.562C948.331 882.907 949.601 881.495 951.255 881.407C952.521 881.339 953.692 882.075 954.182 883.243L979 942.5H1001C988.097 897.134 979.764 868.134 976 855.5C970.075 835.607 947.5 805.5 951.5 819C951.5 819 935.086 757.646 905 678C895.264 652.224 878.374 621.829 867.639 594.518C848.946 546.963 826.273 489.286 799.621 421.485C794.819 409.269 796.748 386.99 788 364.736C785.508 358.396 778.508 349.651 767 338.5L695.5 337.5Z" fill="#FF567B"/>
<path fill-rule="evenodd" clip-rule="evenodd" d="M587.5 818.5L717 786L776 949.5H541L587.5 818.5Z" fill="#002D6F"/>
<path fill-rule="evenodd" clip-rule="evenodd" d="M833.5 805.5L961.5 817.5L1030 977.5H795L833.5 805.5Z" fill="#002D6F"/>
</g>
<mask id="mask1" mask-type="alpha" maskUnits="userSpaceOnUse" x="391" y="160" width="623" height="374">
<path d="M669 210.5L460 160L391 367L484 373L518.5 252.5L680 275L691 337.557H767L775 259.5L929 511.5L1001 533.5L1014 511.5L958 351L801.5 204.5C771.484 212.219 749.817 215.738 736.5 215.057C703.167 213.352 680.667 211.833 669 210.5Z" fill="white"/>
</mask>
<g mask="url(#mask1)">
<path d="M669 210.5L460 160L391 367L484 373L518.5 252.5L680 275L691 337.557H767L775 259.5L929 511.5L1001 533.5L1014 511.5L958 351L801.5 204.5C771.484 212.219 749.817 215.738 736.5 215.057C703.167 213.352 680.667 211.833 669 210.5Z" fill="#FFE694"/>
<path d="M779.524 283.742C778.976 283.812 778.475 283.424 778.405 282.876C778.336 282.328 778.723 281.828 779.271 281.758L785.795 280.927C786.343 280.858 786.843 281.245 786.913 281.793C786.983 282.341 786.595 282.842 786.047 282.911L779.524 283.742ZM779.651 273.302C779.103 273.372 778.602 272.984 778.533 272.437C778.463 271.889 778.851 271.388 779.398 271.318L785.922 270.488C786.47 270.418 786.971 270.806 787.041 271.354C787.11 271.902 786.723 272.402 786.175 272.472L779.651 273.302ZM806.58 280.145C806.032 280.214 805.532 279.827 805.462 279.279C805.392 278.731 805.78 278.23 806.328 278.161L812.851 277.33C813.399 277.261 813.9 277.648 813.97 278.196C814.039 278.744 813.652 279.245 813.104 279.314L806.58 280.145ZM806.708 269.705C806.16 269.775 805.659 269.387 805.589 268.839C805.52 268.292 805.907 267.791 806.455 267.721L812.979 266.891C813.527 266.821 814.027 267.209 814.097 267.756C814.167 268.304 813.779 268.805 813.231 268.875L806.708 269.705ZM792.784 282.549C792.243 282.66 791.714 282.312 791.603 281.771C791.492 281.23 791.841 280.701 792.382 280.59L798.768 279.279C799.309 279.168 799.837 279.517 799.948 280.058C800.059 280.599 799.711 281.127 799.17 281.238L792.784 282.549ZM792.911 272.11C792.37 272.221 791.842 271.872 791.731 271.331C791.62 270.79 791.968 270.262 792.509 270.151L798.895 268.84C799.436 268.729 799.965 269.077 800.076 269.618C800.187 270.159 799.838 270.688 799.297 270.799L792.911 272.11ZM819.84 278.952C819.299 279.063 818.771 278.715 818.66 278.174C818.549 277.633 818.897 277.104 819.438 276.993L825.824 275.682C826.365 275.571 826.894 275.919 827.005 276.46C827.116 277.001 826.768 277.53 826.227 277.641L819.84 278.952ZM819.968 268.513C819.427 268.624 818.898 268.275 818.787 267.734C818.676 267.193 819.025 266.664 819.566 266.553L825.952 265.242C826.493 265.131 827.021 265.48 827.132 266.021C827.243 266.562 826.895 267.09 826.354 267.202L819.968 268.513ZM833.637 276.548C833.089 276.617 832.588 276.23 832.519 275.682C832.449 275.134 832.836 274.633 833.384 274.564L839.908 273.733C840.456 273.663 840.957 274.051 841.026 274.599C841.096 275.147 840.708 275.647 840.161 275.717L833.637 276.548ZM833.764 266.108C833.216 266.178 832.716 265.79 832.646 265.242C832.576 264.694 832.964 264.194 833.512 264.124L840.035 263.294C840.583 263.224 841.084 263.611 841.154 264.159C841.223 264.707 840.836 265.208 840.288 265.278L833.764 266.108ZM846.897 275.355C846.356 275.466 845.828 275.117 845.716 274.576C845.605 274.035 845.954 273.507 846.495 273.396L852.881 272.085C853.422 271.974 853.951 272.322 854.062 272.863C854.173 273.404 853.824 273.933 853.283 274.044L846.897 275.355ZM847.025 264.915C846.484 265.026 845.955 264.678 845.844 264.137C845.733 263.596 846.081 263.067 846.622 262.956L853.008 261.645C853.549 261.534 854.078 261.883 854.189 262.424C854.3 262.965 853.952 263.493 853.411 263.604L847.025 264.915ZM779.778 262.863C779.23 262.932 778.73 262.545 778.66 261.997C778.59 261.449 778.978 260.948 779.526 260.879L786.05 260.048C786.598 259.979 787.098 260.366 787.168 260.914C787.238 261.462 786.85 261.963 786.302 262.032L779.778 262.863ZM806.835 259.266C806.287 259.335 805.786 258.948 805.717 258.4C805.647 257.852 806.035 257.351 806.582 257.282L813.106 256.451C813.654 256.381 814.155 256.769 814.225 257.317C814.294 257.865 813.907 258.365 813.359 258.435L806.835 259.266ZM793.039 261.67C792.498 261.781 791.969 261.433 791.858 260.892C791.747 260.351 792.095 259.822 792.636 259.711L799.022 258.4C799.564 258.289 800.092 258.638 800.203 259.179C800.314 259.72 799.966 260.248 799.425 260.359L793.039 261.67ZM820.095 258.073C819.554 258.184 819.026 257.836 818.915 257.295C818.804 256.754 819.152 256.225 819.693 256.114L826.079 254.803C826.62 254.692 827.149 255.04 827.26 255.581C827.371 256.122 827.022 256.651 826.481 256.762L820.095 258.073ZM833.892 255.668C833.344 255.738 832.843 255.351 832.773 254.803C832.704 254.255 833.091 253.754 833.639 253.684L840.163 252.854C840.711 252.784 841.211 253.172 841.281 253.72C841.351 254.268 840.963 254.768 840.415 254.838L833.892 255.668ZM847.152 254.476C846.611 254.587 846.082 254.238 845.971 253.697C845.86 253.156 846.209 252.628 846.75 252.517L853.136 251.206C853.677 251.095 854.205 251.443 854.316 251.984C854.427 252.525 854.079 253.054 853.538 253.165L847.152 254.476ZM779.906 252.423C779.358 252.493 778.857 252.105 778.788 251.558C778.718 251.01 779.105 250.509 779.653 250.439L786.177 249.609C786.725 249.539 787.226 249.927 787.295 250.475C787.365 251.022 786.977 251.523 786.43 251.593L779.906 252.423ZM806.962 248.826C806.414 248.896 805.914 248.508 805.844 247.96C805.774 247.412 806.162 246.912 806.71 246.842L813.234 246.012C813.782 245.942 814.282 246.33 814.352 246.877C814.422 247.425 814.034 247.926 813.486 247.996L806.962 248.826ZM793.166 251.231C792.625 251.342 792.097 250.993 791.985 250.452C791.874 249.911 792.223 249.383 792.764 249.272L799.15 247.961C799.691 247.849 800.22 248.198 800.331 248.739C800.442 249.28 800.093 249.809 799.552 249.92L793.166 251.231ZM820.223 247.634C819.682 247.745 819.153 247.396 819.042 246.855C818.931 246.314 819.28 245.785 819.821 245.674L826.207 244.363C826.748 244.252 827.276 244.601 827.387 245.142C827.498 245.683 827.15 246.211 826.609 246.323L820.223 247.634ZM834.019 245.229C833.471 245.299 832.97 244.911 832.901 244.363C832.831 243.815 833.219 243.315 833.766 243.245L840.29 242.415C840.838 242.345 841.339 242.732 841.409 243.28C841.478 243.828 841.091 244.329 840.543 244.399L834.019 245.229ZM847.279 244.036C846.738 244.147 846.21 243.799 846.099 243.258C845.988 242.717 846.336 242.188 846.877 242.077L853.263 240.766C853.804 240.655 854.333 241.004 854.444 241.545C854.555 242.086 854.206 242.614 853.665 242.725L847.279 244.036ZM780.033 241.984C779.485 242.053 778.985 241.666 778.915 241.118C778.845 240.57 779.233 240.069 779.781 240L786.304 239.169C786.852 239.1 787.353 239.487 787.423 240.035C787.492 240.583 787.105 241.084 786.557 241.153L780.033 241.984ZM807.09 238.387C806.542 238.456 806.041 238.069 805.972 237.521C805.902 236.973 806.289 236.472 806.837 236.403L813.361 235.572C813.909 235.502 814.41 235.89 814.479 236.438C814.549 236.986 814.161 237.486 813.614 237.556L807.09 238.387ZM793.294 240.791C792.753 240.902 792.224 240.554 792.113 240.013C792.002 239.472 792.35 238.943 792.891 238.832L799.277 237.521C799.818 237.41 800.347 237.758 800.458 238.299C800.569 238.84 800.221 239.369 799.68 239.48L793.294 240.791ZM820.35 237.194C819.809 237.305 819.281 236.957 819.169 236.416C819.058 235.875 819.407 235.346 819.948 235.235L826.334 233.924C826.875 233.813 827.404 234.161 827.515 234.702C827.626 235.243 827.277 235.772 826.736 235.883L820.35 237.194ZM834.146 234.789C833.599 234.859 833.098 234.472 833.028 233.924C832.958 233.376 833.346 232.875 833.894 232.805L840.418 231.975C840.966 231.905 841.466 232.293 841.536 232.841C841.606 233.389 841.218 233.889 840.67 233.959L834.146 234.789ZM847.407 233.597C846.866 233.708 846.337 233.359 846.226 232.818C846.115 232.277 846.464 231.749 847.005 231.638L853.391 230.327C853.932 230.216 854.46 230.564 854.571 231.105C854.682 231.646 854.334 232.175 853.793 232.286L847.407 233.597ZM780.161 231.544C779.613 231.614 779.112 231.226 779.042 230.678C778.973 230.131 779.36 229.63 779.908 229.56L786.432 228.73C786.98 228.66 787.48 229.048 787.55 229.596C787.62 230.143 787.232 230.644 786.684 230.714L780.161 231.544ZM807.217 227.947C806.669 228.017 806.169 227.629 806.099 227.081C806.029 226.533 806.417 226.033 806.965 225.963L813.489 225.133C814.036 225.063 814.537 225.45 814.607 225.998C814.677 226.546 814.289 227.047 813.741 227.117L807.217 227.947ZM793.421 230.352C792.88 230.463 792.351 230.114 792.24 229.573C792.129 229.032 792.478 228.504 793.019 228.392L799.405 227.081C799.946 226.97 800.474 227.319 800.585 227.86C800.696 228.401 800.348 228.93 799.807 229.041L793.421 230.352ZM820.478 226.754C819.937 226.866 819.408 226.517 819.297 225.976C819.186 225.435 819.534 224.906 820.075 224.795L826.461 223.484C827.002 223.373 827.531 223.722 827.642 224.263C827.753 224.804 827.405 225.332 826.864 225.443L820.478 226.754ZM834.274 224.35C833.726 224.42 833.225 224.032 833.156 223.484C833.086 222.936 833.473 222.436 834.021 222.366L840.545 221.535C841.093 221.466 841.594 221.853 841.663 222.401C841.733 222.949 841.346 223.45 840.798 223.519L834.274 224.35ZM847.534 223.157C846.993 223.268 846.465 222.92 846.353 222.379C846.242 221.838 846.591 221.309 847.132 221.198L853.518 219.887C854.059 219.776 854.588 220.125 854.699 220.666C854.81 221.207 854.461 221.735 853.92 221.846L847.534 223.157ZM807.345 217.508C806.797 217.577 806.296 217.19 806.226 216.642C806.157 216.094 806.544 215.593 807.092 215.524L813.616 214.693C814.164 214.623 814.664 215.011 814.734 215.559C814.804 216.107 814.416 216.607 813.868 216.677L807.345 217.508ZM793.548 219.912C793.007 220.023 792.479 219.675 792.368 219.134C792.257 218.593 792.605 218.064 793.146 217.953L799.532 216.642C800.073 216.531 800.602 216.879 800.713 217.42C800.824 217.961 800.475 218.49 799.934 218.601L793.548 219.912ZM820.605 216.315C820.064 216.426 819.535 216.077 819.424 215.536C819.313 214.995 819.662 214.467 820.203 214.356L826.589 213.045C827.13 212.934 827.658 213.282 827.769 213.823C827.88 214.364 827.532 214.893 826.991 215.004L820.605 216.315ZM783.55 220.689L783.297 218.705L783.55 220.689ZM783.55 220.689L780.288 221.105C778.965 221.273 778.713 219.289 780.035 219.121L783.297 218.705L786.559 218.29C787.882 218.122 788.135 220.106 786.812 220.274L783.55 220.689ZM837.663 213.495L837.411 211.511L837.663 213.495ZM837.411 211.511C838.733 211.343 838.986 213.327 837.663 213.495L834.401 213.91C833.079 214.079 832.826 212.095 834.149 211.926L837.411 211.511L840.673 211.096C841.995 210.928 842.248 212.912 840.925 213.08L837.663 213.495C836.34 213.664 836.088 211.68 837.411 211.511ZM847.662 212.718C847.121 212.829 846.592 212.48 846.481 211.939C846.37 211.398 846.718 210.87 847.259 210.759L853.645 209.448C854.186 209.337 854.715 209.685 854.826 210.226C854.937 210.767 854.589 211.296 854.048 211.407L847.662 212.718ZM693.665 227.464C693.643 226.912 694.073 226.447 694.624 226.426C695.176 226.404 695.641 226.834 695.663 227.385L695.922 233.957C695.943 234.509 695.514 234.974 694.962 234.995C694.41 235.017 693.945 234.587 693.923 234.036L693.665 227.464ZM704.053 228.501C704.031 227.949 704.461 227.484 705.013 227.462C705.565 227.441 706.03 227.87 706.052 228.422L706.31 234.994C706.332 235.546 705.902 236.01 705.35 236.032C704.799 236.054 704.334 235.624 704.312 235.072L704.053 228.501ZM694.89 254.731C694.868 254.179 695.298 253.714 695.85 253.693C696.402 253.671 696.867 254.101 696.888 254.653L697.147 261.224C697.169 261.776 696.739 262.241 696.187 262.263C695.635 262.284 695.17 261.855 695.148 261.303L694.89 254.731ZM705.279 255.768C705.257 255.216 705.687 254.751 706.238 254.73C706.79 254.708 707.255 255.138 707.277 255.689L707.536 262.261C707.557 262.813 707.128 263.278 706.576 263.299C706.024 263.321 705.559 262.891 705.537 262.339L705.279 255.768ZM693.697 240.778C693.633 240.229 694.027 239.733 694.575 239.67C695.124 239.606 695.62 239.999 695.684 240.548L696.433 247.024C696.497 247.573 696.103 248.069 695.555 248.132C695.006 248.196 694.51 247.803 694.446 247.254L693.697 240.778ZM704.086 241.815C704.022 241.266 704.415 240.77 704.964 240.706C705.513 240.643 706.009 241.036 706.072 241.585L706.822 248.061C706.885 248.609 706.492 249.106 705.943 249.169C705.395 249.233 704.898 248.839 704.835 248.291L704.086 241.815ZM694.922 268.045C694.859 267.496 695.252 267 695.801 266.937C696.349 266.873 696.845 267.267 696.909 267.815L697.658 274.291C697.722 274.84 697.329 275.336 696.78 275.399C696.231 275.463 695.735 275.07 695.672 274.521L694.922 268.045ZM705.311 269.082C705.247 268.533 705.641 268.037 706.189 267.974C706.738 267.91 707.234 268.303 707.298 268.852L708.047 275.328C708.111 275.877 707.717 276.373 707.169 276.436C706.62 276.5 706.124 276.106 706.06 275.558L705.311 269.082ZM696.115 281.998C696.093 281.447 696.523 280.982 697.075 280.96C697.627 280.938 698.092 281.368 698.114 281.92L698.372 288.491C698.394 289.043 697.964 289.508 697.412 289.53C696.861 289.551 696.396 289.122 696.374 288.57L696.115 281.998ZM706.504 283.035C706.482 282.483 706.912 282.018 707.464 281.997C708.016 281.975 708.481 282.405 708.502 282.957L708.761 289.528C708.783 290.08 708.353 290.545 707.801 290.567C707.249 290.588 706.784 290.158 706.763 289.607L706.504 283.035ZM696.148 295.312C696.084 294.764 696.477 294.267 697.026 294.204C697.575 294.14 698.071 294.534 698.134 295.082L698.884 301.558C698.947 302.107 698.554 302.603 698.005 302.667C697.457 302.73 696.96 302.337 696.897 301.788L696.148 295.312ZM706.536 296.349C706.473 295.8 706.866 295.304 707.415 295.241C707.963 295.177 708.459 295.571 708.523 296.119L709.272 302.595C709.336 303.144 708.943 303.64 708.394 303.703C707.845 303.767 707.349 303.374 707.286 302.825L706.536 296.349ZM714.442 229.538C714.42 228.986 714.85 228.521 715.402 228.499C715.954 228.477 716.419 228.907 716.44 229.459L716.699 236.03C716.721 236.582 716.291 237.047 715.739 237.069C715.187 237.091 714.722 236.661 714.701 236.109L714.442 229.538ZM715.667 256.805C715.646 256.253 716.075 255.788 716.627 255.766C717.179 255.745 717.644 256.174 717.666 256.726L717.924 263.298C717.946 263.849 717.516 264.314 716.964 264.336C716.413 264.358 715.948 263.928 715.926 263.376L715.667 256.805ZM714.474 242.852C714.411 242.303 714.804 241.807 715.353 241.743C715.901 241.68 716.397 242.073 716.461 242.622L717.21 249.098C717.274 249.646 716.881 250.142 716.332 250.206C715.783 250.269 715.287 249.876 715.224 249.327L714.474 242.852ZM715.7 270.119C715.636 269.57 716.029 269.074 716.578 269.01C717.127 268.947 717.623 269.34 717.686 269.889L718.436 276.365C718.499 276.913 718.106 277.41 717.557 277.473C717.009 277.537 716.512 277.143 716.449 276.595L715.7 270.119ZM716.893 284.072C716.871 283.52 717.301 283.055 717.852 283.033C718.404 283.012 718.869 283.442 718.891 283.993L719.15 290.565C719.171 291.117 718.742 291.582 718.19 291.603C717.638 291.625 717.173 291.195 717.151 290.643L716.893 284.072ZM716.925 297.386C716.861 296.837 717.255 296.341 717.803 296.278C718.352 296.214 718.848 296.607 718.912 297.156L719.661 303.632C719.725 304.181 719.331 304.677 718.783 304.74C718.234 304.804 717.738 304.41 717.674 303.862L716.925 297.386ZM724.831 230.574C724.809 230.023 725.239 229.558 725.791 229.536C726.342 229.514 726.807 229.944 726.829 230.496L727.088 237.067C727.109 237.619 726.68 238.084 726.128 238.106C725.576 238.128 725.111 237.698 725.089 237.146L724.831 230.574ZM726.056 257.842C726.034 257.29 726.464 256.825 727.016 256.803C727.568 256.781 728.033 257.211 728.054 257.763L728.313 264.334C728.335 264.886 727.905 265.351 727.353 265.373C726.801 265.395 726.336 264.965 726.315 264.413L726.056 257.842ZM724.863 243.888C724.799 243.34 725.193 242.843 725.741 242.78C726.29 242.716 726.786 243.11 726.85 243.658L727.599 250.134C727.663 250.683 727.269 251.179 726.721 251.243C726.172 251.306 725.676 250.913 725.612 250.364L724.863 243.888ZM726.088 271.155C726.025 270.607 726.418 270.111 726.967 270.047C727.515 269.984 728.011 270.377 728.075 270.926L728.824 277.402C728.888 277.95 728.495 278.446 727.946 278.51C727.397 278.573 726.901 278.18 726.838 277.631L726.088 271.155ZM727.281 285.109C727.26 284.557 727.689 284.092 728.241 284.07C728.793 284.049 729.258 284.478 729.28 285.03L729.538 291.602C729.56 292.153 729.13 292.618 728.578 292.64C728.027 292.662 727.562 292.232 727.54 291.68L727.281 285.109ZM727.314 298.423C727.25 297.874 727.643 297.378 728.192 297.314C728.741 297.251 729.237 297.644 729.3 298.193L730.05 304.669C730.113 305.217 729.72 305.714 729.171 305.777C728.623 305.841 728.127 305.447 728.063 304.899L727.314 298.423ZM735.219 231.611C735.198 231.059 735.627 230.594 736.179 230.573C736.731 230.551 737.196 230.981 737.218 231.533L737.476 238.104C737.498 238.656 737.068 239.121 736.516 239.143C735.965 239.164 735.5 238.735 735.478 238.183L735.219 231.611ZM736.445 258.878C736.423 258.327 736.853 257.862 737.405 257.84C737.956 257.818 738.421 258.248 738.443 258.8L738.702 265.371C738.723 265.923 738.294 266.388 737.742 266.41C737.19 266.431 736.725 266.002 736.703 265.45L736.445 258.878ZM735.252 244.925C735.188 244.376 735.581 243.88 736.13 243.817C736.679 243.753 737.175 244.147 737.238 244.695L737.988 251.171C738.051 251.72 737.658 252.216 737.109 252.279C736.561 252.343 736.065 251.95 736.001 251.401L735.252 244.925ZM736.477 272.192C736.413 271.644 736.807 271.147 737.355 271.084C737.904 271.02 738.4 271.414 738.464 271.962L739.213 278.438C739.277 278.987 738.883 279.483 738.335 279.547C737.786 279.61 737.29 279.217 737.226 278.668L736.477 272.192ZM737.67 286.146C737.648 285.594 738.078 285.129 738.63 285.107C739.182 285.085 739.647 285.515 739.668 286.067L739.927 292.638C739.949 293.19 739.519 293.655 738.967 293.677C738.415 293.699 737.95 293.269 737.929 292.717L737.67 286.146ZM737.702 299.459C737.639 298.911 738.032 298.415 738.581 298.351C739.129 298.288 739.626 298.681 739.689 299.23L740.438 305.706C740.502 306.254 740.109 306.75 739.56 306.814C739.011 306.877 738.515 306.484 738.452 305.935L737.702 299.459ZM745.608 232.648C745.586 232.096 746.016 231.631 746.568 231.61C747.12 231.588 747.585 232.018 747.606 232.569L747.865 239.141C747.887 239.693 747.457 240.158 746.905 240.179C746.353 240.201 745.888 239.771 745.867 239.219L745.608 232.648ZM746.833 259.915C746.812 259.363 747.241 258.898 747.793 258.877C748.345 258.855 748.81 259.285 748.832 259.837L749.09 266.408C749.112 266.96 748.682 267.425 748.131 267.447C747.579 267.468 747.114 267.038 747.092 266.487L746.833 259.915ZM745.64 245.962C745.577 245.413 745.97 244.917 746.519 244.854C747.067 244.79 747.564 245.183 747.627 245.732L748.376 252.208C748.44 252.757 748.047 253.253 747.498 253.316C746.949 253.38 746.453 252.986 746.39 252.438L745.64 245.962ZM746.866 273.229C746.802 272.68 747.195 272.184 747.744 272.121C748.293 272.057 748.789 272.451 748.852 272.999L749.602 279.475C749.665 280.024 749.272 280.52 748.723 280.583C748.175 280.647 747.679 280.254 747.615 279.705L746.866 273.229ZM748.059 287.182C748.037 286.631 748.467 286.166 749.019 286.144C749.57 286.122 750.035 286.552 750.057 287.104L750.316 293.675C750.337 294.227 749.908 294.692 749.356 294.714C748.804 294.735 748.339 294.306 748.317 293.754L748.059 287.182ZM748.091 300.496C748.027 299.948 748.421 299.451 748.969 299.388C749.518 299.324 750.014 299.718 750.078 300.266L750.827 306.742C750.891 307.291 750.497 307.787 749.949 307.851C749.4 307.914 748.904 307.521 748.84 306.972L748.091 300.496ZM757.222 260.952C757.2 260.4 757.63 259.935 758.182 259.913C758.734 259.892 759.199 260.322 759.22 260.873L759.479 267.445C759.501 267.997 759.071 268.462 758.519 268.483C757.967 268.505 757.502 268.075 757.481 267.523L757.222 260.952ZM756.029 246.999C755.966 246.45 756.359 245.954 756.907 245.89C757.456 245.827 757.952 246.22 758.016 246.769L758.765 253.245C758.829 253.793 758.435 254.29 757.887 254.353C757.338 254.417 756.842 254.023 756.778 253.475L756.029 246.999ZM757.254 274.266C757.191 273.717 757.584 273.221 758.133 273.158C758.681 273.094 759.178 273.487 759.241 274.036L759.991 280.512C760.054 281.061 759.661 281.557 759.112 281.62C758.563 281.684 758.067 281.29 758.004 280.742L757.254 274.266ZM756.126 236.971L758.124 236.892L756.126 236.971ZM756.126 236.971L755.997 233.685C755.944 232.353 757.943 232.274 757.995 233.606L758.124 236.892L758.254 240.178C758.306 241.51 756.308 241.589 756.255 240.256L756.126 236.971ZM758.577 291.505L760.575 291.426L758.577 291.505ZM760.575 291.426C760.628 292.759 758.629 292.837 758.577 291.505L758.447 288.219C758.395 286.887 760.393 286.808 760.446 288.141L760.575 291.426L760.704 294.712C760.757 296.044 758.758 296.123 758.706 294.791L758.577 291.505C758.524 290.173 760.523 290.094 760.575 291.426ZM758.48 301.533C758.416 300.984 758.809 300.488 759.358 300.425C759.907 300.361 760.403 300.754 760.466 301.303L761.216 307.779C761.279 308.328 760.886 308.824 760.337 308.887C759.789 308.951 759.293 308.558 759.229 308.009L758.48 301.533ZM832.95 325.483C832.639 325.027 832.757 324.404 833.213 324.094C833.67 323.783 834.292 323.901 834.603 324.357L838.304 329.793C838.615 330.25 838.497 330.872 838.041 331.182C837.584 331.493 836.962 331.375 836.651 330.919L832.95 325.483ZM842.309 320.857C841.998 320.401 842.116 319.779 842.573 319.468C843.029 319.157 843.651 319.275 843.962 319.731L847.664 325.167C847.975 325.624 847.857 326.246 847.4 326.557C846.944 326.867 846.322 326.749 846.011 326.293L842.309 320.857ZM848.438 347.958C848.127 347.501 848.245 346.879 848.702 346.568C849.158 346.257 849.78 346.375 850.091 346.832L853.793 352.268C854.104 352.724 853.986 353.346 853.529 353.657C853.073 353.968 852.451 353.85 852.14 353.393L848.438 347.958ZM857.798 343.332C857.487 342.875 857.605 342.253 858.061 341.942C858.518 341.631 859.14 341.749 859.451 342.206L863.153 347.642C863.463 348.098 863.345 348.72 862.889 349.031C862.432 349.342 861.81 349.224 861.499 348.767L857.798 343.332ZM840.032 336.757C839.688 336.325 839.758 335.696 840.19 335.351C840.622 335.007 841.251 335.077 841.595 335.509L845.663 340.604C846.007 341.035 845.937 341.664 845.505 342.009C845.073 342.354 844.444 342.283 844.1 341.851L840.032 336.757ZM849.392 332.131C849.047 331.699 849.118 331.07 849.549 330.725C849.981 330.381 850.61 330.451 850.955 330.883L855.022 335.978C855.367 336.409 855.296 337.039 854.865 337.383C854.433 337.728 853.804 337.657 853.459 337.225L849.392 332.131ZM855.521 359.231C855.176 358.8 855.247 358.17 855.678 357.826C856.11 357.481 856.739 357.552 857.084 357.983L861.151 363.078C861.496 363.51 861.425 364.139 860.994 364.484C860.562 364.828 859.933 364.758 859.588 364.326L855.521 359.231ZM864.88 354.605C864.536 354.174 864.606 353.544 865.038 353.2C865.47 352.855 866.099 352.926 866.443 353.357L870.511 358.452C870.855 358.884 870.785 359.513 870.353 359.858C869.922 360.202 869.292 360.132 868.948 359.7L864.88 354.605ZM863.927 370.432C863.616 369.976 863.734 369.354 864.19 369.043C864.647 368.732 865.269 368.85 865.58 369.306L869.282 374.742C869.592 375.199 869.474 375.821 869.018 376.132C868.561 376.442 867.939 376.324 867.628 375.868L863.927 370.432ZM873.286 365.806C872.975 365.35 873.093 364.728 873.55 364.417C874.007 364.106 874.629 364.224 874.939 364.68L878.641 370.116C878.952 370.573 878.834 371.195 878.377 371.506C877.921 371.817 877.299 371.698 876.988 371.242L873.286 365.806ZM871.009 381.706C870.665 381.274 870.735 380.645 871.167 380.3C871.599 379.956 872.228 380.026 872.572 380.458L876.64 385.553C876.984 385.984 876.914 386.614 876.482 386.958C876.051 387.303 875.421 387.232 875.077 386.801L871.009 381.706ZM880.369 377.08C880.024 376.648 880.095 376.019 880.527 375.674C880.958 375.33 881.587 375.4 881.932 375.832L885.999 380.927C886.344 381.358 886.273 381.988 885.842 382.332C885.41 382.677 884.781 382.606 884.436 382.175L880.369 377.08ZM851.669 316.231C851.358 315.775 851.476 315.153 851.932 314.842C852.389 314.531 853.011 314.649 853.322 315.105L857.024 320.541C857.334 320.998 857.216 321.62 856.76 321.931C856.303 322.241 855.681 322.123 855.37 321.667L851.669 316.231ZM867.157 338.706C866.846 338.249 866.965 337.627 867.421 337.316C867.878 337.005 868.5 337.123 868.81 337.58L872.512 343.016C872.823 343.472 872.705 344.094 872.248 344.405C871.792 344.716 871.17 344.598 870.859 344.141L867.157 338.706ZM858.751 327.505C858.407 327.073 858.477 326.444 858.909 326.099C859.341 325.755 859.97 325.825 860.314 326.257L864.382 331.352C864.726 331.783 864.656 332.413 864.224 332.757C863.793 333.102 863.163 333.031 862.819 332.6L858.751 327.505ZM874.24 349.979C873.895 349.548 873.966 348.918 874.398 348.574C874.829 348.229 875.458 348.3 875.803 348.732L879.87 353.826C880.215 354.258 880.144 354.887 879.713 355.232C879.281 355.576 878.652 355.506 878.307 355.074L874.24 349.979ZM882.646 361.18C882.335 360.724 882.453 360.102 882.91 359.791C883.366 359.48 883.988 359.598 884.299 360.055L888.001 365.49C888.311 365.947 888.193 366.569 887.737 366.88C887.28 367.191 886.658 367.073 886.347 366.616L882.646 361.18ZM889.728 372.454C889.384 372.022 889.454 371.393 889.886 371.048C890.318 370.704 890.947 370.774 891.292 371.206L895.359 376.301C895.703 376.732 895.633 377.362 895.201 377.706C894.77 378.051 894.14 377.98 893.796 377.549L889.728 372.454ZM861.028 311.605C860.717 311.149 860.835 310.527 861.292 310.216C861.748 309.905 862.371 310.023 862.681 310.48L866.383 315.915C866.694 316.372 866.576 316.994 866.119 317.305C865.663 317.616 865.041 317.497 864.73 317.041L861.028 311.605ZM876.517 334.08C876.206 333.623 876.324 333.001 876.781 332.69C877.237 332.379 877.859 332.498 878.17 332.954L881.872 338.39C882.182 338.846 882.064 339.468 881.608 339.779C881.151 340.09 880.529 339.972 880.218 339.516L876.517 334.08ZM868.111 322.879C867.766 322.447 867.837 321.818 868.269 321.473C868.7 321.129 869.329 321.199 869.674 321.631L873.741 326.726C874.086 327.157 874.015 327.787 873.584 328.131C873.152 328.476 872.523 328.405 872.178 327.974L868.111 322.879ZM883.599 345.353C883.255 344.922 883.325 344.293 883.757 343.948C884.189 343.603 884.818 343.674 885.162 344.106L889.23 349.2C889.574 349.632 889.504 350.261 889.072 350.606C888.641 350.95 888.011 350.88 887.667 350.448L883.599 345.353ZM892.005 356.554C891.695 356.098 891.813 355.476 892.269 355.165C892.726 354.854 893.348 354.972 893.658 355.429L897.36 360.864C897.671 361.321 897.553 361.943 897.096 362.254C896.64 362.565 896.018 362.447 895.707 361.99L892.005 356.554ZM899.088 367.828C898.743 367.396 898.814 366.767 899.246 366.423C899.677 366.078 900.306 366.149 900.651 366.58L904.718 371.675C905.063 372.107 904.992 372.736 904.561 373.08C904.129 373.425 903.5 373.354 903.155 372.923L899.088 367.828ZM870.388 306.979C870.077 306.523 870.195 305.901 870.652 305.59C871.108 305.279 871.73 305.397 872.041 305.854L875.743 311.289C876.053 311.746 875.935 312.368 875.479 312.679C875.022 312.99 874.4 312.872 874.089 312.415L870.388 306.979ZM885.876 329.454C885.566 328.997 885.684 328.375 886.14 328.064C886.597 327.754 887.219 327.872 887.529 328.328L891.231 333.764C891.542 334.22 891.424 334.842 890.967 335.153C890.511 335.464 889.889 335.346 889.578 334.89L885.876 329.454ZM877.47 318.253C877.126 317.821 877.196 317.192 877.628 316.848C878.06 316.503 878.689 316.574 879.033 317.005L883.101 322.1C883.445 322.532 883.375 323.161 882.943 323.505C882.512 323.85 881.882 323.779 881.538 323.348L877.47 318.253ZM892.959 340.727C892.614 340.296 892.685 339.667 893.117 339.322C893.548 338.978 894.177 339.048 894.522 339.48L898.589 344.574C898.934 345.006 898.863 345.635 898.432 345.98C898 346.324 897.371 346.254 897.026 345.822L892.959 340.727ZM901.365 351.928C901.054 351.472 901.172 350.85 901.629 350.539C902.085 350.228 902.707 350.346 903.018 350.803L906.72 356.238C907.031 356.695 906.912 357.317 906.456 357.628C905.999 357.939 905.377 357.821 905.067 357.364L901.365 351.928ZM908.448 363.202C908.103 362.77 908.174 362.141 908.605 361.797C909.037 361.452 909.666 361.523 910.011 361.954L914.078 367.049C914.422 367.481 914.352 368.11 913.92 368.454C913.489 368.799 912.859 368.728 912.515 368.297L908.448 363.202ZM879.747 302.353C879.436 301.897 879.555 301.275 880.011 300.964C880.468 300.653 881.09 300.771 881.4 301.228L885.102 306.663C885.413 307.12 885.295 307.742 884.838 308.053C884.382 308.364 883.76 308.246 883.449 307.789L879.747 302.353ZM895.236 324.828C894.925 324.371 895.043 323.749 895.5 323.439C895.956 323.128 896.578 323.246 896.889 323.702L900.591 329.138C900.902 329.594 900.783 330.217 900.327 330.527C899.87 330.838 899.248 330.72 898.938 330.264L895.236 324.828ZM886.83 313.627C886.485 313.195 886.556 312.566 886.988 312.222C887.419 311.877 888.048 311.948 888.393 312.379L892.46 317.474C892.805 317.906 892.734 318.535 892.303 318.879C891.871 319.224 891.242 319.153 890.897 318.722L886.83 313.627ZM902.319 336.102C901.974 335.67 902.045 335.041 902.476 334.696C902.908 334.352 903.537 334.422 903.882 334.854L907.949 339.949C908.293 340.38 908.223 341.009 907.791 341.354C907.36 341.699 906.73 341.628 906.386 341.196L902.319 336.102ZM910.724 347.302C910.414 346.846 910.532 346.224 910.988 345.913C911.445 345.602 912.067 345.72 912.378 346.177L916.079 351.613C916.39 352.069 916.272 352.691 915.815 353.002C915.359 353.313 914.737 353.195 914.426 352.738L910.724 347.302ZM917.807 358.576C917.463 358.144 917.533 357.515 917.965 357.171C918.396 356.826 919.026 356.897 919.37 357.328L923.437 362.423C923.782 362.855 923.711 363.484 923.28 363.829C922.848 364.173 922.219 364.103 921.874 363.671L917.807 358.576ZM904.595 320.202C904.285 319.746 904.403 319.123 904.859 318.813C905.316 318.502 905.938 318.62 906.249 319.076L909.95 324.512C910.261 324.969 910.143 325.591 909.686 325.901C909.23 326.212 908.608 326.094 908.297 325.638L904.595 320.202ZM896.19 309.001C895.845 308.569 895.916 307.94 896.347 307.596C896.779 307.251 897.408 307.322 897.753 307.753L901.82 312.848C902.164 313.28 902.094 313.909 901.662 314.253C901.231 314.598 900.601 314.527 900.257 314.096L896.19 309.001ZM911.678 331.476C911.334 331.044 911.404 330.415 911.836 330.07C912.267 329.726 912.897 329.796 913.241 330.228L917.308 335.323C917.653 335.754 917.582 336.383 917.151 336.728C916.719 337.073 916.09 337.002 915.745 336.57L911.678 331.476ZM890.958 300.445L892.611 299.32L890.958 300.445ZM890.958 300.445L889.107 297.727C888.356 296.625 890.01 295.5 890.76 296.602L892.611 299.32L894.462 302.038C895.212 303.14 893.559 304.265 892.809 303.163L890.958 300.445ZM921.935 345.394L923.588 344.269L921.935 345.394ZM923.588 344.269C924.338 345.371 922.685 346.497 921.935 345.394L920.084 342.677C919.333 341.574 920.987 340.449 921.737 341.551L923.588 344.269L925.439 346.987C926.189 348.089 924.536 349.214 923.786 348.112L921.935 345.394C921.184 344.292 922.837 343.167 923.588 344.269ZM927.167 353.95C926.822 353.519 926.893 352.889 927.324 352.545C927.756 352.2 928.385 352.271 928.73 352.702L932.797 357.797C933.141 358.229 933.071 358.858 932.639 359.203C932.208 359.547 931.579 359.477 931.234 359.045L927.167 353.95ZM878.563 393.757C878.268 393.29 878.408 392.672 878.875 392.378C879.342 392.083 879.96 392.222 880.255 392.69L883.764 398.251C884.059 398.718 883.919 399.336 883.452 399.631C882.985 399.925 882.368 399.786 882.073 399.319L878.563 393.757ZM888.079 389.46C887.784 388.993 887.923 388.376 888.391 388.081C888.858 387.786 889.475 387.926 889.77 388.393L893.28 393.955C893.574 394.422 893.435 395.039 892.968 395.334C892.5 395.629 891.883 395.489 891.588 395.022L888.079 389.46ZM893.258 416.758C892.963 416.291 893.103 415.674 893.57 415.379C894.037 415.084 894.655 415.224 894.949 415.691L898.459 421.253C898.754 421.72 898.614 422.337 898.147 422.632C897.68 422.927 897.062 422.787 896.768 422.32L893.258 416.758ZM902.773 412.462C902.479 411.995 902.618 411.377 903.085 411.082C903.552 410.788 904.17 410.927 904.465 411.394L907.974 416.956C908.269 417.423 908.129 418.041 907.662 418.336C907.195 418.63 906.578 418.491 906.283 418.023L902.773 412.462ZM885.248 405.271C884.919 404.827 885.011 404.201 885.455 403.872C885.898 403.542 886.524 403.635 886.854 404.078L890.741 409.312C891.07 409.755 890.978 410.382 890.534 410.711C890.091 411.04 889.464 410.948 889.135 410.504L885.248 405.271ZM894.763 400.974C894.434 400.531 894.527 399.905 894.97 399.575C895.413 399.246 896.04 399.339 896.369 399.782L900.256 405.016C900.585 405.459 900.493 406.085 900.049 406.415C899.606 406.744 898.98 406.651 898.65 406.208L894.763 400.974ZM899.943 428.272C899.614 427.829 899.706 427.202 900.149 426.873C900.593 426.544 901.219 426.636 901.548 427.08L905.435 432.313C905.765 432.757 905.672 433.383 905.229 433.712C904.786 434.042 904.159 433.949 903.83 433.506L899.943 428.272ZM909.458 423.976C909.129 423.532 909.221 422.906 909.665 422.577C910.108 422.247 910.734 422.34 911.064 422.783L914.951 428.017C915.28 428.46 915.188 429.087 914.744 429.416C914.301 429.745 913.674 429.653 913.345 429.209L909.458 423.976ZM907.953 439.76C907.658 439.293 907.798 438.675 908.265 438.38C908.732 438.086 909.349 438.225 909.644 438.692L913.154 444.254C913.449 444.721 913.309 445.339 912.842 445.633C912.375 445.928 911.757 445.788 911.462 445.321L907.953 439.76ZM917.468 435.463C917.173 434.996 917.313 434.379 917.78 434.084C918.247 433.789 918.865 433.929 919.159 434.396L922.669 439.958C922.964 440.425 922.824 441.042 922.357 441.337C921.89 441.632 921.272 441.492 920.978 441.025L917.468 435.463ZM914.638 451.274C914.308 450.83 914.401 450.204 914.844 449.875C915.288 449.545 915.914 449.638 916.243 450.081L920.13 455.315C920.46 455.758 920.367 456.385 919.924 456.714C919.48 457.043 918.854 456.951 918.525 456.507L914.638 451.274ZM924.153 446.977C923.824 446.534 923.916 445.907 924.359 445.578C924.803 445.249 925.429 445.341 925.759 445.785L929.646 451.018C929.975 451.462 929.882 452.088 929.439 452.417C928.996 452.747 928.369 452.654 928.04 452.211L924.153 446.977ZM897.594 385.164C897.299 384.697 897.439 384.079 897.906 383.785C898.373 383.49 898.99 383.63 899.285 384.097L902.795 389.658C903.09 390.125 902.95 390.743 902.483 391.038C902.016 391.332 901.398 391.193 901.103 390.726L897.594 385.164ZM912.289 408.165C911.994 407.698 912.133 407.081 912.601 406.786C913.068 406.491 913.685 406.631 913.98 407.098L917.49 412.66C917.784 413.127 917.645 413.744 917.178 414.039C916.71 414.334 916.093 414.194 915.798 413.727L912.289 408.165ZM904.279 396.678C903.949 396.235 904.042 395.608 904.485 395.279C904.929 394.95 905.555 395.042 905.884 395.485L909.771 400.719C910.101 401.162 910.008 401.789 909.565 402.118C909.121 402.447 908.495 402.355 908.166 401.912L904.279 396.678ZM918.973 419.679C918.644 419.236 918.737 418.61 919.18 418.28C919.623 417.951 920.25 418.043 920.579 418.487L924.466 423.72C924.795 424.164 924.703 424.79 924.259 425.12C923.816 425.449 923.19 425.356 922.86 424.913L918.973 419.679ZM926.983 431.167C926.689 430.7 926.828 430.082 927.295 429.787C927.762 429.493 928.38 429.632 928.675 430.099L932.184 435.661C932.479 436.128 932.339 436.746 931.872 437.04C931.405 437.335 930.788 437.195 930.493 436.728L926.983 431.167ZM933.668 442.681C933.339 442.237 933.431 441.611 933.875 441.282C934.318 440.952 934.944 441.045 935.274 441.488L939.161 446.722C939.49 447.165 939.398 447.792 938.954 448.121C938.511 448.45 937.884 448.358 937.555 447.914L933.668 442.681ZM907.109 380.868C906.814 380.4 906.954 379.783 907.421 379.488C907.888 379.193 908.506 379.333 908.8 379.8L912.31 385.362C912.605 385.829 912.465 386.446 911.998 386.741C911.531 387.036 910.913 386.896 910.619 386.429L907.109 380.868ZM921.804 403.869C921.509 403.402 921.649 402.784 922.116 402.49C922.583 402.195 923.2 402.334 923.495 402.802L927.005 408.363C927.3 408.83 927.16 409.448 926.693 409.743C926.226 410.037 925.608 409.898 925.313 409.431L921.804 403.869ZM913.794 392.381C913.465 391.938 913.557 391.312 914 390.982C914.444 390.653 915.07 390.746 915.4 391.189L919.287 396.423C919.616 396.866 919.523 397.492 919.08 397.822C918.637 398.151 918.01 398.058 917.681 397.615L913.794 392.381ZM928.489 415.383C928.159 414.939 928.252 414.313 928.695 413.984C929.139 413.655 929.765 413.747 930.094 414.19L933.981 419.424C934.311 419.867 934.218 420.494 933.775 420.823C933.331 421.152 932.705 421.06 932.376 420.616L928.489 415.383ZM936.499 426.87C936.204 426.403 936.344 425.786 936.811 425.491C937.278 425.196 937.895 425.336 938.19 425.803L941.7 431.365C941.994 431.832 941.855 432.449 941.388 432.744C940.921 433.039 940.303 432.899 940.008 432.432L936.499 426.87ZM943.183 438.384C942.854 437.941 942.947 437.314 943.39 436.985C943.833 436.656 944.46 436.748 944.789 437.192L948.676 442.425C949.005 442.869 948.913 443.495 948.47 443.824C948.026 444.154 947.4 444.061 947.07 443.618L943.183 438.384ZM916.624 376.571C916.33 376.104 916.469 375.486 916.936 375.192C917.403 374.897 918.021 375.037 918.316 375.504L921.825 381.065C922.12 381.532 921.98 382.15 921.513 382.445C921.046 382.739 920.429 382.6 920.134 382.133L916.624 376.571ZM931.319 399.572C931.024 399.105 931.164 398.488 931.631 398.193C932.098 397.898 932.716 398.038 933.01 398.505L936.52 404.067C936.815 404.534 936.675 405.151 936.208 405.446C935.741 405.741 935.123 405.601 934.829 405.134L931.319 399.572ZM923.309 388.085C922.98 387.642 923.072 387.015 923.516 386.686C923.959 386.357 924.586 386.449 924.915 386.893L928.802 392.126C929.131 392.57 929.039 393.196 928.595 393.525C928.152 393.854 927.526 393.762 927.196 393.319L923.309 388.085ZM938.004 411.086C937.675 410.643 937.767 410.017 938.211 409.687C938.654 409.358 939.28 409.451 939.61 409.894L943.497 415.128C943.826 415.571 943.733 416.197 943.29 416.527C942.847 416.856 942.22 416.763 941.891 416.32L938.004 411.086ZM946.014 422.574C945.719 422.107 945.859 421.489 946.326 421.194C946.793 420.9 947.41 421.039 947.705 421.506L951.215 427.068C951.51 427.535 951.37 428.153 950.903 428.448C950.436 428.742 949.818 428.603 949.524 428.136L946.014 422.574ZM952.699 434.088C952.369 433.644 952.462 433.018 952.905 432.689C953.349 432.359 953.975 432.452 954.304 432.895L958.191 438.129C958.521 438.572 958.428 439.199 957.985 439.528C957.541 439.857 956.915 439.765 956.586 439.321L952.699 434.088ZM926.14 372.275C925.845 371.808 925.985 371.19 926.452 370.895C926.919 370.6 927.536 370.74 927.831 371.207L931.341 376.769C931.635 377.236 931.496 377.854 931.029 378.148C930.562 378.443 929.944 378.303 929.649 377.836L926.14 372.275ZM940.834 395.276C940.54 394.809 940.679 394.191 941.146 393.897C941.613 393.602 942.231 393.742 942.526 394.209L946.035 399.77C946.33 400.237 946.19 400.855 945.723 401.15C945.256 401.444 944.639 401.305 944.344 400.838L940.834 395.276ZM932.824 383.789C932.495 383.345 932.588 382.719 933.031 382.389C933.474 382.06 934.101 382.153 934.43 382.596L938.317 387.83C938.646 388.273 938.554 388.899 938.111 389.229C937.667 389.558 937.041 389.466 936.712 389.022L932.824 383.789ZM947.519 406.79C947.19 406.347 947.282 405.72 947.726 405.391C948.169 405.062 948.796 405.154 949.125 405.597L953.012 410.831C953.341 411.274 953.249 411.901 952.805 412.23C952.362 412.559 951.736 412.467 951.406 412.024L947.519 406.79ZM955.529 418.277C955.234 417.81 955.374 417.193 955.841 416.898C956.308 416.603 956.926 416.743 957.22 417.21L960.73 422.772C961.025 423.239 960.885 423.856 960.418 424.151C959.951 424.446 959.334 424.306 959.039 423.839L955.529 418.277ZM962.214 429.791C961.885 429.348 961.977 428.722 962.421 428.392C962.864 428.063 963.49 428.155 963.82 428.599L967.707 433.832C968.036 434.276 967.943 434.902 967.5 435.232C967.057 435.561 966.43 435.468 966.101 435.025L962.214 429.791ZM950.35 390.98C950.055 390.512 950.195 389.895 950.662 389.6C951.129 389.305 951.746 389.445 952.041 389.912L955.551 395.474C955.845 395.941 955.706 396.558 955.239 396.853C954.772 397.148 954.154 397.008 953.859 396.541L950.35 390.98ZM942.34 379.492C942.01 379.049 942.103 378.422 942.546 378.093C942.99 377.764 943.616 377.856 943.945 378.3L947.832 383.533C948.162 383.977 948.069 384.603 947.626 384.932C947.182 385.262 946.556 385.169 946.227 384.726L942.34 379.492ZM957.035 402.493C956.705 402.05 956.798 401.424 957.241 401.094C957.684 400.765 958.311 400.858 958.64 401.301L962.527 406.535C962.856 406.978 962.764 407.604 962.321 407.934C961.877 408.263 961.251 408.17 960.922 407.727L957.035 402.493ZM937.41 370.759L939.101 369.692L937.41 370.759ZM937.41 370.759L935.655 367.978C934.943 366.851 936.635 365.783 937.346 366.911L939.101 369.692L940.856 372.472C941.567 373.6 939.876 374.667 939.165 373.54L937.41 370.759ZM966.799 416.762L968.491 415.694L966.799 416.762ZM968.491 415.694C969.202 416.822 967.511 417.889 966.799 416.762L965.044 413.981C964.333 412.853 966.024 411.786 966.736 412.914L968.491 415.694L970.245 418.475C970.957 419.603 969.266 420.67 968.554 419.543L966.799 416.762C966.088 415.634 967.779 414.567 968.491 415.694ZM971.729 425.495C971.4 425.051 971.492 424.425 971.936 424.096C972.379 423.767 973.006 423.859 973.335 424.302L977.222 429.536C977.551 429.979 977.459 430.606 977.015 430.935C976.572 431.264 975.946 431.172 975.616 430.728L971.729 425.495ZM588.489 257.23C587.955 257.09 587.636 256.543 587.776 256.009C587.917 255.475 588.464 255.156 588.998 255.296L595.358 256.97C595.892 257.111 596.211 257.658 596.07 258.192C595.93 258.726 595.383 259.045 594.849 258.904L588.489 257.23ZM592.518 247.599C591.984 247.458 591.665 246.911 591.805 246.377C591.946 245.843 592.493 245.524 593.027 245.665L599.387 247.339C599.921 247.479 600.24 248.026 600.099 248.56C599.959 249.094 599.412 249.413 598.878 249.273L592.518 247.599ZM614.923 264.031C614.389 263.89 614.07 263.343 614.21 262.809C614.351 262.275 614.898 261.956 615.432 262.097L621.792 263.771C622.326 263.911 622.645 264.458 622.504 264.992C622.364 265.526 621.817 265.845 621.283 265.705L614.923 264.031ZM618.952 254.399C618.418 254.258 618.099 253.712 618.239 253.177C618.38 252.643 618.927 252.324 619.461 252.465L625.821 254.139C626.355 254.279 626.674 254.826 626.533 255.36C626.393 255.895 625.846 256.214 625.311 256.073L618.952 254.399ZM601.23 261.092C600.687 260.992 600.328 260.471 600.427 259.928C600.527 259.385 601.048 259.025 601.591 259.125L608.003 260.302C608.547 260.401 608.906 260.922 608.806 261.466C608.707 262.009 608.186 262.368 607.642 262.269L601.23 261.092ZM605.259 251.46C604.716 251.361 604.356 250.84 604.456 250.296C604.556 249.753 605.077 249.394 605.62 249.493L612.032 250.67C612.575 250.77 612.935 251.291 612.835 251.834C612.736 252.377 612.214 252.737 611.671 252.637L605.259 251.46ZM627.664 267.892C627.121 267.793 626.762 267.272 626.861 266.728C626.961 266.185 627.482 265.826 628.025 265.925L634.437 267.102C634.981 267.202 635.34 267.723 635.24 268.266C635.141 268.809 634.62 269.169 634.076 269.069L627.664 267.892ZM631.693 258.261C631.15 258.161 630.79 257.64 630.89 257.097C630.99 256.553 631.511 256.194 632.054 256.294L638.466 257.47C639.009 257.57 639.369 258.091 639.269 258.634C639.17 259.178 638.648 259.537 638.105 259.437L631.693 258.261ZM641.357 270.831C640.823 270.69 640.504 270.144 640.644 269.609C640.785 269.075 641.332 268.756 641.866 268.897L648.226 270.571C648.76 270.711 649.079 271.258 648.938 271.792C648.798 272.327 648.251 272.646 647.717 272.505L641.357 270.831ZM645.386 261.199C644.851 261.059 644.532 260.512 644.673 259.978C644.814 259.444 645.361 259.125 645.895 259.265L652.255 260.939C652.789 261.08 653.108 261.627 652.967 262.161C652.826 262.695 652.28 263.014 651.745 262.873L645.386 261.199ZM654.098 274.693C653.555 274.593 653.195 274.072 653.295 273.529C653.395 272.985 653.916 272.626 654.459 272.726L660.871 273.902C661.415 274.002 661.774 274.523 661.674 275.066C661.575 275.61 661.054 275.969 660.51 275.869L654.098 274.693ZM658.127 265.061C657.584 264.961 657.224 264.44 657.324 263.897C657.424 263.354 657.945 262.994 658.488 263.094L664.9 264.271C665.443 264.37 665.803 264.891 665.703 265.435C665.604 265.978 665.082 266.337 664.539 266.238L658.127 265.061ZM596.546 237.967C596.012 237.826 595.693 237.28 595.834 236.745C595.975 236.211 596.521 235.892 597.056 236.033L603.415 237.707C603.95 237.847 604.269 238.394 604.128 238.928C603.987 239.463 603.44 239.782 602.906 239.641L596.546 237.967ZM622.98 244.767C622.446 244.627 622.127 244.08 622.268 243.546C622.409 243.012 622.955 242.693 623.49 242.833L629.849 244.507C630.384 244.648 630.703 245.195 630.562 245.729C630.421 246.263 629.874 246.582 629.34 246.441L622.98 244.767ZM609.288 241.829C608.745 241.729 608.385 241.208 608.485 240.665C608.585 240.121 609.106 239.762 609.649 239.862L616.061 241.038C616.604 241.138 616.964 241.659 616.864 242.202C616.765 242.746 616.243 243.105 615.7 243.005L609.288 241.829ZM635.722 248.629C635.179 248.529 634.819 248.008 634.919 247.465C635.019 246.922 635.54 246.562 636.083 246.662L642.495 247.839C643.038 247.938 643.398 248.46 643.298 249.003C643.198 249.546 642.677 249.905 642.134 249.806L635.722 248.629ZM649.414 251.568C648.88 251.427 648.561 250.88 648.702 250.346C648.842 249.812 649.389 249.493 649.924 249.634L656.283 251.308C656.817 251.448 657.136 251.995 656.996 252.529C656.855 253.063 656.308 253.382 655.774 253.242L649.414 251.568ZM662.156 255.429C661.613 255.33 661.253 254.809 661.353 254.265C661.453 253.722 661.974 253.363 662.517 253.462L668.929 254.639C669.472 254.739 669.832 255.26 669.732 255.803C669.632 256.346 669.111 256.706 668.568 256.606L662.156 255.429ZM600.575 228.335C600.041 228.195 599.722 227.648 599.863 227.114C600.003 226.58 600.55 226.261 601.084 226.401L607.444 228.075C607.978 228.216 608.297 228.763 608.157 229.297C608.016 229.831 607.469 230.15 606.935 230.009L600.575 228.335ZM627.009 235.136C626.475 234.995 626.156 234.448 626.297 233.914C626.437 233.38 626.984 233.061 627.518 233.202L633.878 234.876C634.412 235.016 634.731 235.563 634.591 236.097C634.45 236.631 633.903 236.95 633.369 236.81L627.009 235.136ZM613.317 232.197C612.774 232.097 612.414 231.576 612.514 231.033C612.613 230.49 613.135 230.13 613.678 230.23L620.09 231.407C620.633 231.506 620.993 232.028 620.893 232.571C620.793 233.114 620.272 233.473 619.729 233.374L613.317 232.197ZM639.751 238.997C639.208 238.898 638.848 238.377 638.948 237.833C639.047 237.29 639.569 236.931 640.112 237.03L646.524 238.207C647.067 238.307 647.427 238.828 647.327 239.371C647.227 239.914 646.706 240.274 646.163 240.174L639.751 238.997ZM653.443 241.936C652.909 241.796 652.59 241.249 652.731 240.715C652.871 240.18 653.418 239.861 653.952 240.002L660.312 241.676C660.846 241.817 661.165 242.363 661.025 242.898C660.884 243.432 660.337 243.751 659.803 243.61L653.443 241.936ZM666.185 245.798C665.642 245.698 665.282 245.177 665.382 244.634C665.481 244.091 666.003 243.731 666.546 243.831L672.958 245.007C673.501 245.107 673.861 245.628 673.761 246.171C673.661 246.715 673.14 247.074 672.597 246.975L666.185 245.798ZM604.604 218.704C604.07 218.563 603.751 218.016 603.892 217.482C604.032 216.948 604.579 216.629 605.113 216.77L611.473 218.444C612.007 218.584 612.326 219.131 612.186 219.665C612.045 220.199 611.498 220.518 610.964 220.378L604.604 218.704ZM631.038 225.504C630.504 225.364 630.185 224.817 630.326 224.283C630.466 223.748 631.013 223.429 631.547 223.57L637.907 225.244C638.441 225.385 638.76 225.931 638.62 226.466C638.479 227 637.932 227.319 637.398 227.178L631.038 225.504ZM617.346 222.565C616.802 222.466 616.443 221.945 616.543 221.401C616.642 220.858 617.163 220.499 617.707 220.598L624.119 221.775C624.662 221.875 625.022 222.396 624.922 222.939C624.822 223.482 624.301 223.842 623.758 223.742L617.346 222.565ZM643.78 229.366C643.236 229.266 642.877 228.745 642.977 228.202C643.076 227.659 643.597 227.299 644.141 227.399L650.553 228.575C651.096 228.675 651.456 229.196 651.356 229.739C651.256 230.283 650.735 230.642 650.192 230.543L643.78 229.366ZM657.472 232.304C656.938 232.164 656.619 231.617 656.76 231.083C656.9 230.549 657.447 230.23 657.981 230.37L664.341 232.044C664.875 232.185 665.194 232.732 665.054 233.266C664.913 233.8 664.366 234.119 663.832 233.978L657.472 232.304ZM670.214 236.166C669.67 236.066 669.311 235.545 669.411 235.002C669.51 234.459 670.031 234.099 670.575 234.199L676.987 235.376C677.53 235.475 677.89 235.997 677.79 236.54C677.69 237.083 677.169 237.443 676.626 237.343L670.214 236.166ZM608.633 209.072C608.099 208.932 607.78 208.385 607.921 207.851C608.061 207.316 608.608 206.997 609.142 207.138L615.502 208.812C616.036 208.953 616.355 209.499 616.214 210.034C616.074 210.568 615.527 210.887 614.993 210.746L608.633 209.072ZM635.067 215.873C634.533 215.732 634.214 215.185 634.354 214.651C634.495 214.117 635.042 213.798 635.576 213.938L641.936 215.612C642.47 215.753 642.789 216.3 642.648 216.834C642.508 217.368 641.961 217.687 641.427 217.546L635.067 215.873ZM621.375 212.934C620.831 212.834 620.472 212.313 620.571 211.77C620.671 211.227 621.192 210.867 621.736 210.967L628.148 212.143C628.691 212.243 629.05 212.764 628.951 213.307C628.851 213.851 628.33 214.21 627.787 214.111L621.375 212.934ZM647.809 219.734C647.265 219.635 646.906 219.113 647.005 218.57C647.105 218.027 647.626 217.667 648.17 217.767L654.582 218.944C655.125 219.043 655.484 219.565 655.385 220.108C655.285 220.651 654.764 221.011 654.221 220.911L647.809 219.734ZM661.501 222.673C660.967 222.532 660.648 221.985 660.788 221.451C660.929 220.917 661.476 220.598 662.01 220.739L668.37 222.413C668.904 222.553 669.223 223.1 669.082 223.634C668.942 224.168 668.395 224.487 667.861 224.347L661.501 222.673ZM674.243 226.535C673.699 226.435 673.34 225.914 673.439 225.37C673.539 224.827 674.06 224.468 674.603 224.567L681.016 225.744C681.559 225.844 681.918 226.365 681.819 226.908C681.719 227.451 681.198 227.811 680.655 227.711L674.243 226.535ZM639.096 206.241C638.562 206.1 638.243 205.553 638.383 205.019C638.524 204.485 639.071 204.166 639.605 204.307L645.965 205.981C646.499 206.121 646.818 206.668 646.677 207.202C646.537 207.736 645.99 208.055 645.456 207.915L639.096 206.241ZM625.403 203.302C624.86 203.203 624.501 202.681 624.6 202.138C624.7 201.595 625.221 201.235 625.764 201.335L632.177 202.512C632.72 202.611 633.079 203.133 632.98 203.676C632.88 204.219 632.359 204.579 631.816 204.479L625.403 203.302ZM651.837 210.103C651.294 210.003 650.935 209.482 651.034 208.939C651.134 208.395 651.655 208.036 652.198 208.135L658.61 209.312C659.154 209.412 659.513 209.933 659.414 210.476C659.314 211.019 658.793 211.379 658.249 211.279L651.837 210.103ZM615.842 200.277L616.351 198.343L615.842 200.277ZM615.842 200.277L612.662 199.441C611.372 199.101 611.882 197.167 613.171 197.506L616.351 198.343L619.531 199.18C620.82 199.52 620.311 201.454 619.022 201.114L615.842 200.277ZM668.71 213.878L669.219 211.944L668.71 213.878ZM669.219 211.944C670.508 212.283 669.999 214.218 668.71 213.878L665.53 213.041C664.24 212.702 664.749 210.768 666.039 211.107L669.219 211.944L672.399 212.781C673.688 213.12 673.179 215.055 671.89 214.715L668.71 213.878C667.42 213.539 667.929 211.605 669.219 211.944ZM678.271 216.903C677.728 216.803 677.369 216.282 677.468 215.739C677.568 215.196 678.089 214.836 678.632 214.936L685.044 216.112C685.588 216.212 685.947 216.733 685.848 217.277C685.748 217.82 685.227 218.179 684.683 218.08L678.271 216.903ZM491.523 238.406C490.984 238.284 490.646 237.749 490.768 237.21C490.89 236.672 491.425 236.334 491.964 236.456L498.378 237.907C498.917 238.028 499.255 238.564 499.133 239.103C499.011 239.641 498.476 239.979 497.937 239.857L491.523 238.406ZM495.213 228.64C494.674 228.518 494.336 227.983 494.458 227.444C494.58 226.905 495.116 226.567 495.654 226.689L502.069 228.14C502.607 228.262 502.945 228.798 502.823 229.336C502.701 229.875 502.166 230.213 501.627 230.091L495.213 228.64ZM518.178 244.28C517.639 244.158 517.301 243.623 517.423 243.084C517.545 242.545 518.08 242.207 518.619 242.329L525.034 243.78C525.572 243.902 525.91 244.438 525.788 244.976C525.666 245.515 525.131 245.853 524.592 245.731L518.178 244.28ZM521.868 234.514C521.329 234.392 520.992 233.856 521.113 233.318C521.235 232.779 521.771 232.441 522.309 232.563L528.724 234.014C529.262 234.136 529.6 234.671 529.479 235.21C529.357 235.749 528.821 236.086 528.283 235.965L521.868 234.514ZM504.391 241.821C503.845 241.74 503.467 241.232 503.548 240.686C503.629 240.139 504.137 239.762 504.683 239.842L511.133 240.795C511.679 240.875 512.056 241.384 511.976 241.93C511.895 242.476 511.387 242.854 510.84 242.773L504.391 241.821ZM508.081 232.055C507.535 231.974 507.158 231.466 507.238 230.919C507.319 230.373 507.827 229.995 508.374 230.076L514.823 231.028C515.369 231.109 515.747 231.617 515.666 232.164C515.585 232.71 515.077 233.087 514.531 233.007L508.081 232.055ZM531.046 247.695C530.5 247.614 530.123 247.106 530.203 246.559C530.284 246.013 530.792 245.635 531.339 245.716L537.788 246.668C538.334 246.749 538.712 247.257 538.631 247.804C538.55 248.35 538.042 248.728 537.496 248.647L531.046 247.695ZM534.737 237.928C534.19 237.848 533.813 237.339 533.893 236.793C533.974 236.247 534.482 235.869 535.029 235.95L541.478 236.902C542.024 236.983 542.402 237.491 542.321 238.037C542.241 238.584 541.732 238.961 541.186 238.88L534.737 237.928ZM544.833 250.154C544.294 250.032 543.956 249.496 544.078 248.958C544.2 248.419 544.736 248.081 545.274 248.203L551.689 249.654C552.227 249.776 552.565 250.311 552.443 250.85C552.322 251.389 551.786 251.727 551.247 251.605L544.833 250.154ZM548.523 240.387C547.985 240.265 547.647 239.73 547.769 239.191C547.89 238.653 548.426 238.315 548.965 238.437L555.379 239.888C555.918 240.009 556.256 240.545 556.134 241.084C556.012 241.622 555.476 241.96 554.938 241.838L548.523 240.387ZM557.702 253.568C557.155 253.488 556.778 252.979 556.858 252.433C556.939 251.887 557.447 251.509 557.994 251.59L564.443 252.542C564.989 252.623 565.367 253.131 565.286 253.677C565.206 254.224 564.697 254.601 564.151 254.521L557.702 253.568ZM561.392 243.802C560.845 243.721 560.468 243.213 560.549 242.667C560.629 242.12 561.138 241.743 561.684 241.823L568.133 242.776C568.68 242.856 569.057 243.365 568.976 243.911C568.896 244.457 568.387 244.835 567.841 244.754L561.392 243.802ZM498.903 218.874C498.365 218.752 498.027 218.216 498.148 217.678C498.27 217.139 498.806 216.801 499.344 216.923L505.759 218.374C506.298 218.496 506.635 219.031 506.514 219.57C506.392 220.109 505.856 220.446 505.318 220.325L498.903 218.874ZM525.558 224.747C525.02 224.625 524.682 224.09 524.804 223.551C524.926 223.013 525.461 222.675 526 222.797L532.414 224.248C532.953 224.369 533.291 224.905 533.169 225.444C533.047 225.982 532.511 226.32 531.973 226.198L525.558 224.747ZM511.772 222.288C511.225 222.208 510.848 221.699 510.928 221.153C511.009 220.607 511.517 220.229 512.064 220.31L518.513 221.262C519.059 221.343 519.437 221.851 519.356 222.397C519.276 222.944 518.767 223.321 518.221 223.24L511.772 222.288ZM538.427 228.162C537.881 228.081 537.503 227.573 537.584 227.027C537.664 226.48 538.173 226.103 538.719 226.183L545.168 227.136C545.715 227.216 546.092 227.725 546.012 228.271C545.931 228.817 545.423 229.195 544.876 229.114L538.427 228.162ZM552.214 230.621C551.675 230.499 551.337 229.964 551.459 229.425C551.581 228.886 552.116 228.548 552.655 228.67L559.069 230.121C559.608 230.243 559.946 230.779 559.824 231.317C559.702 231.856 559.167 232.194 558.628 232.072L552.214 230.621ZM565.082 234.036C564.536 233.955 564.158 233.447 564.239 232.9C564.32 232.354 564.828 231.976 565.374 232.057L571.824 233.009C572.37 233.09 572.747 233.598 572.667 234.145C572.586 234.691 572.078 235.068 571.531 234.988L565.082 234.036ZM502.593 209.107C502.055 208.985 501.717 208.45 501.839 207.911C501.961 207.373 502.496 207.035 503.035 207.156L509.449 208.607C509.988 208.729 510.326 209.265 510.204 209.803C510.082 210.342 509.547 210.68 509.008 210.558L502.593 209.107ZM529.249 214.981C528.71 214.859 528.372 214.324 528.494 213.785C528.616 213.246 529.151 212.908 529.69 213.03L536.104 214.481C536.643 214.603 536.981 215.138 536.859 215.677C536.737 216.216 536.202 216.554 535.663 216.432L529.249 214.981ZM515.462 212.522C514.916 212.441 514.538 211.933 514.619 211.387C514.699 210.84 515.208 210.463 515.754 210.543L522.203 211.495C522.75 211.576 523.127 212.084 523.047 212.631C522.966 213.177 522.458 213.555 521.911 213.474L515.462 212.522ZM542.117 218.396C541.571 218.315 541.193 217.807 541.274 217.26C541.355 216.714 541.863 216.336 542.409 216.417L548.859 217.369C549.405 217.45 549.782 217.958 549.702 218.505C549.621 219.051 549.113 219.428 548.566 219.348L542.117 218.396ZM555.904 220.855C555.365 220.733 555.027 220.197 555.149 219.659C555.271 219.12 555.806 218.782 556.345 218.904L562.76 220.355C563.298 220.477 563.636 221.012 563.514 221.551C563.392 222.089 562.857 222.427 562.318 222.306L555.904 220.855ZM568.772 224.269C568.226 224.189 567.848 223.68 567.929 223.134C568.01 222.588 568.518 222.21 569.064 222.291L575.514 223.243C576.06 223.324 576.438 223.832 576.357 224.378C576.276 224.925 575.768 225.302 575.222 225.221L568.772 224.269ZM506.284 199.341C505.745 199.219 505.407 198.684 505.529 198.145C505.651 197.606 506.186 197.268 506.725 197.39L513.139 198.841C513.678 198.963 514.016 199.498 513.894 200.037C513.772 200.576 513.237 200.914 512.698 200.792L506.284 199.341ZM532.939 205.215C532.4 205.093 532.062 204.557 532.184 204.019C532.306 203.48 532.841 203.142 533.38 203.264L539.795 204.715C540.333 204.837 540.671 205.372 540.549 205.911C540.427 206.449 539.892 206.787 539.353 206.665L532.939 205.215ZM519.152 202.756C518.606 202.675 518.228 202.167 518.309 201.62C518.39 201.074 518.898 200.696 519.444 200.777L525.894 201.729C526.44 201.81 526.817 202.318 526.737 202.864C526.656 203.411 526.148 203.788 525.601 203.708L519.152 202.756ZM545.807 208.629C545.261 208.549 544.884 208.04 544.964 207.494C545.045 206.947 545.553 206.57 546.1 206.651L552.549 207.603C553.095 207.684 553.473 208.192 553.392 208.738C553.311 209.285 552.803 209.662 552.257 209.581L545.807 208.629ZM559.594 211.088C559.055 210.966 558.718 210.431 558.839 209.892C558.961 209.354 559.497 209.016 560.035 209.137L566.45 210.588C566.988 210.71 567.326 211.246 567.205 211.784C567.083 212.323 566.547 212.661 566.009 212.539L559.594 211.088ZM572.463 214.503C571.916 214.422 571.539 213.914 571.619 213.368C571.7 212.821 572.208 212.444 572.755 212.524L579.204 213.477C579.75 213.557 580.128 214.065 580.047 214.612C579.967 215.158 579.458 215.536 578.912 215.455L572.463 214.503ZM509.974 189.574C509.435 189.453 509.097 188.917 509.219 188.378C509.341 187.84 509.877 187.502 510.415 187.624L516.83 189.075C517.368 189.197 517.706 189.732 517.584 190.271C517.462 190.809 516.927 191.147 516.388 191.025L509.974 189.574ZM536.629 195.448C536.09 195.326 535.753 194.791 535.874 194.252C535.996 193.713 536.532 193.376 537.07 193.497L543.485 194.948C544.024 195.07 544.361 195.606 544.24 196.144C544.118 196.683 543.582 197.021 543.044 196.899L536.629 195.448ZM522.842 192.989C522.296 192.908 521.919 192.4 521.999 191.854C522.08 191.307 522.588 190.93 523.135 191.011L529.584 191.963C530.13 192.043 530.508 192.552 530.427 193.098C530.346 193.644 529.838 194.022 529.292 193.941L522.842 192.989ZM549.498 198.863C548.951 198.782 548.574 198.274 548.654 197.727C548.735 197.181 549.243 196.804 549.79 196.884L556.239 197.836C556.785 197.917 557.163 198.425 557.082 198.972C557.002 199.518 556.493 199.896 555.947 199.815L549.498 198.863ZM563.284 201.322C562.746 201.2 562.408 200.664 562.53 200.126C562.651 199.587 563.187 199.249 563.726 199.371L570.14 200.822C570.679 200.944 571.017 201.479 570.895 202.018C570.773 202.557 570.237 202.895 569.699 202.773L563.284 201.322ZM576.153 204.736C575.607 204.656 575.229 204.147 575.31 203.601C575.39 203.055 575.899 202.677 576.445 202.758L582.894 203.71C583.441 203.791 583.818 204.299 583.738 204.845C583.657 205.392 583.149 205.769 582.602 205.689L576.153 204.736ZM540.319 185.682C539.781 185.56 539.443 185.024 539.565 184.486C539.687 183.947 540.222 183.609 540.761 183.731L547.175 185.182C547.714 185.304 548.052 185.839 547.93 186.378C547.808 186.917 547.273 187.255 546.734 187.133L540.319 185.682ZM526.533 183.223C525.986 183.142 525.609 182.634 525.69 182.087C525.77 181.541 526.278 181.164 526.825 181.244L533.274 182.196C533.82 182.277 534.198 182.785 534.117 183.332C534.037 183.878 533.528 184.256 532.982 184.175L526.533 183.223ZM553.188 189.096C552.642 189.016 552.264 188.507 552.345 187.961C552.425 187.415 552.934 187.037 553.48 187.118L559.929 188.07C560.476 188.151 560.853 188.659 560.773 189.205C560.692 189.752 560.184 190.129 559.637 190.049L553.188 189.096ZM516.871 180.534L517.313 178.583L516.871 180.534ZM516.871 180.534L513.664 179.808C512.364 179.514 512.805 177.563 514.105 177.857L517.313 178.583L520.52 179.308C521.82 179.603 521.379 181.553 520.079 181.259L516.871 180.534ZM570.182 192.281L570.623 190.33L570.182 192.281ZM570.623 190.33C571.924 190.624 571.482 192.575 570.182 192.281L566.975 191.555C565.674 191.261 566.115 189.311 567.416 189.605L570.623 190.33L573.83 191.056C575.131 191.35 574.689 193.301 573.389 193.006L570.182 192.281C568.881 191.987 569.323 190.036 570.623 190.33ZM579.843 194.97C579.297 194.889 578.919 194.381 579 193.835C579.081 193.288 579.589 192.911 580.135 192.992L586.585 193.944C587.131 194.024 587.508 194.533 587.428 195.079C587.347 195.625 586.839 196.003 586.292 195.922L579.843 194.97ZM409.647 224.336C409.107 224.224 408.759 223.694 408.872 223.154C408.984 222.613 409.514 222.266 410.054 222.378L416.493 223.717C417.034 223.829 417.381 224.359 417.269 224.899C417.156 225.44 416.627 225.787 416.086 225.675L409.647 224.336ZM413.166 214.507C412.626 214.394 412.279 213.865 412.391 213.324C412.503 212.784 413.033 212.436 413.574 212.549L420.012 213.888C420.553 214 420.9 214.529 420.788 215.07C420.675 215.611 420.146 215.958 419.605 215.846L413.166 214.507ZM436.401 229.744C435.86 229.631 435.513 229.102 435.625 228.561C435.738 228.02 436.267 227.673 436.808 227.786L443.247 229.124C443.788 229.237 444.135 229.766 444.022 230.307C443.91 230.848 443.38 231.195 442.84 231.083L436.401 229.744ZM439.92 219.914C439.379 219.802 439.032 219.273 439.145 218.732C439.257 218.191 439.787 217.844 440.327 217.956L446.766 219.295C447.307 219.408 447.654 219.937 447.542 220.478C447.429 221.019 446.9 221.366 446.359 221.253L439.92 219.914ZM422.573 227.526C422.026 227.455 421.639 226.953 421.71 226.405C421.782 225.858 422.283 225.471 422.831 225.542L429.296 226.382C429.844 226.453 430.23 226.955 430.159 227.502C430.088 228.05 429.586 228.436 429.038 228.365L422.573 227.526ZM426.093 217.696C425.545 217.625 425.159 217.124 425.23 216.576C425.301 216.028 425.802 215.642 426.35 215.713L432.815 216.553C433.363 216.624 433.749 217.125 433.678 217.673C433.607 218.221 433.105 218.607 432.558 218.536L426.093 217.696ZM449.327 232.933C448.779 232.862 448.393 232.361 448.464 231.813C448.535 231.265 449.037 230.879 449.585 230.95L456.049 231.789C456.597 231.861 456.984 232.362 456.912 232.91C456.841 233.458 456.34 233.844 455.792 233.773L449.327 232.933ZM452.846 223.104C452.299 223.033 451.912 222.531 451.983 221.984C452.054 221.436 452.556 221.05 453.104 221.121L459.569 221.96C460.116 222.031 460.503 222.533 460.432 223.081C460.361 223.628 459.859 224.015 459.311 223.944L452.846 223.104ZM463.155 235.151C462.614 235.039 462.267 234.509 462.379 233.969C462.491 233.428 463.021 233.081 463.562 233.193L470 234.532C470.541 234.644 470.888 235.174 470.776 235.715C470.663 236.255 470.134 236.603 469.593 236.49L463.155 235.151ZM466.674 225.322C466.133 225.21 465.786 224.68 465.898 224.139C466.011 223.599 466.54 223.252 467.081 223.364L473.52 224.703C474.06 224.815 474.408 225.345 474.295 225.885C474.183 226.426 473.653 226.773 473.113 226.661L466.674 225.322ZM476.081 238.341C475.533 238.27 475.147 237.768 475.218 237.22C475.289 236.673 475.791 236.286 476.338 236.358L482.803 237.197C483.351 237.268 483.737 237.77 483.666 238.317C483.595 238.865 483.093 239.252 482.546 239.18L476.081 238.341ZM479.6 228.512C479.052 228.44 478.666 227.939 478.737 227.391C478.808 226.843 479.31 226.457 479.857 226.528L486.322 227.368C486.87 227.439 487.256 227.94 487.185 228.488C487.114 229.036 486.613 229.422 486.065 229.351L479.6 228.512ZM416.686 204.678C416.145 204.565 415.798 204.036 415.91 203.495C416.023 202.954 416.552 202.607 417.093 202.719L423.532 204.058C424.072 204.171 424.42 204.7 424.307 205.241C424.195 205.782 423.665 206.129 423.124 206.016L416.686 204.678ZM443.439 210.085C442.899 209.973 442.551 209.443 442.664 208.903C442.776 208.362 443.306 208.015 443.847 208.127L450.285 209.466C450.826 209.578 451.173 210.108 451.061 210.649C450.948 211.189 450.419 211.536 449.878 211.424L443.439 210.085ZM429.612 207.867C429.064 207.796 428.678 207.294 428.749 206.747C428.82 206.199 429.322 205.813 429.869 205.884L436.334 206.723C436.882 206.794 437.268 207.296 437.197 207.844C437.126 208.391 436.624 208.778 436.077 208.707L429.612 207.867ZM456.366 213.275C455.818 213.204 455.432 212.702 455.503 212.154C455.574 211.607 456.075 211.22 456.623 211.291L463.088 212.131C463.636 212.202 464.022 212.704 463.951 213.251C463.88 213.799 463.378 214.185 462.83 214.114L456.366 213.275ZM470.193 215.493C469.652 215.38 469.305 214.851 469.418 214.31C469.53 213.769 470.059 213.422 470.6 213.535L477.039 214.873C477.58 214.986 477.927 215.515 477.814 216.056C477.702 216.597 477.173 216.944 476.632 216.832L470.193 215.493ZM483.119 218.682C482.571 218.611 482.185 218.11 482.256 217.562C482.327 217.014 482.829 216.628 483.377 216.699L489.842 217.538C490.389 217.61 490.776 218.111 490.705 218.659C490.633 219.207 490.132 219.593 489.584 219.522L483.119 218.682ZM420.205 194.848C419.664 194.736 419.317 194.206 419.429 193.666C419.542 193.125 420.071 192.778 420.612 192.89L427.051 194.229C427.592 194.341 427.939 194.871 427.826 195.412C427.714 195.952 427.184 196.3 426.644 196.187L420.205 194.848ZM446.959 200.256C446.418 200.143 446.071 199.614 446.183 199.073C446.296 198.533 446.825 198.185 447.366 198.298L453.805 199.637C454.345 199.749 454.692 200.279 454.58 200.819C454.468 201.36 453.938 201.707 453.397 201.595L446.959 200.256ZM433.131 198.038C432.583 197.967 432.197 197.465 432.268 196.917C432.339 196.37 432.841 195.983 433.389 196.055L439.854 196.894C440.401 196.965 440.788 197.467 440.716 198.014C440.645 198.562 440.144 198.948 439.596 198.877L433.131 198.038ZM459.885 203.445C459.337 203.374 458.951 202.873 459.022 202.325C459.093 201.777 459.595 201.391 460.142 201.462L466.607 202.302C467.155 202.373 467.541 202.874 467.47 203.422C467.399 203.97 466.897 204.356 466.35 204.285L459.885 203.445ZM473.712 205.663C473.172 205.551 472.824 205.022 472.937 204.481C473.049 203.94 473.579 203.593 474.119 203.705L480.558 205.044C481.099 205.157 481.446 205.686 481.334 206.227C481.221 206.768 480.692 207.115 480.151 207.002L473.712 205.663ZM486.638 208.853C486.091 208.782 485.704 208.28 485.776 207.733C485.847 207.185 486.348 206.799 486.896 206.87L493.361 207.709C493.909 207.78 494.295 208.282 494.224 208.83C494.153 209.377 493.651 209.764 493.103 209.693L486.638 208.853ZM423.724 185.019C423.184 184.907 422.836 184.377 422.949 183.836C423.061 183.296 423.591 182.948 424.131 183.061L430.57 184.4C431.111 184.512 431.458 185.042 431.346 185.582C431.233 186.123 430.704 186.47 430.163 186.358L423.724 185.019ZM450.478 190.427C449.937 190.314 449.59 189.785 449.702 189.244C449.815 188.703 450.344 188.356 450.885 188.468L457.324 189.807C457.864 189.92 458.212 190.449 458.099 190.99C457.987 191.531 457.457 191.878 456.917 191.765L450.478 190.427ZM436.65 188.209C436.103 188.137 435.716 187.636 435.787 187.088C435.859 186.54 436.36 186.154 436.908 186.225L443.373 187.065C443.921 187.136 444.307 187.637 444.236 188.185C444.165 188.733 443.663 189.119 443.115 189.048L436.65 188.209ZM463.404 193.616C462.856 193.545 462.47 193.043 462.541 192.496C462.612 191.948 463.114 191.562 463.662 191.633L470.126 192.472C470.674 192.543 471.061 193.045 470.989 193.593C470.918 194.14 470.417 194.527 469.869 194.456L463.404 193.616ZM477.232 195.834C476.691 195.722 476.344 195.192 476.456 194.652C476.568 194.111 477.098 193.764 477.639 193.876L484.077 195.215C484.618 195.327 484.965 195.857 484.853 196.398C484.74 196.938 484.211 197.285 483.67 197.173L477.232 195.834ZM490.158 199.024C489.61 198.953 489.224 198.451 489.295 197.903C489.366 197.356 489.868 196.969 490.415 197.04L496.88 197.88C497.428 197.951 497.814 198.453 497.743 199C497.672 199.548 497.17 199.934 496.623 199.863L490.158 199.024ZM427.243 175.19C426.703 175.077 426.356 174.548 426.468 174.007C426.58 173.466 427.11 173.119 427.651 173.232L434.089 174.57C434.63 174.683 434.977 175.212 434.865 175.753C434.752 176.294 434.223 176.641 433.682 176.529L427.243 175.19ZM453.997 180.597C453.456 180.485 453.109 179.955 453.222 179.415C453.334 178.874 453.864 178.527 454.404 178.639L460.843 179.978C461.384 180.09 461.731 180.62 461.619 181.161C461.506 181.701 460.977 182.049 460.436 181.936L453.997 180.597ZM440.17 178.379C439.622 178.308 439.236 177.806 439.307 177.259C439.378 176.711 439.879 176.325 440.427 176.396L446.892 177.235C447.44 177.307 447.826 177.808 447.755 178.356C447.684 178.904 447.182 179.29 446.635 179.219L440.17 178.379ZM466.923 183.787C466.376 183.716 465.989 183.214 466.06 182.666C466.131 182.119 466.633 181.732 467.181 181.804L473.646 182.643C474.193 182.714 474.58 183.216 474.509 183.763C474.438 184.311 473.936 184.697 473.388 184.626L466.923 183.787ZM480.751 186.005C480.21 185.892 479.863 185.363 479.975 184.822C480.088 184.282 480.617 183.934 481.158 184.047L487.597 185.386C488.137 185.498 488.485 186.028 488.372 186.568C488.26 187.109 487.73 187.456 487.19 187.344L480.751 186.005ZM493.677 189.194C493.129 189.123 492.743 188.622 492.814 188.074C492.885 187.526 493.387 187.14 493.934 187.211L500.399 188.051C500.947 188.122 501.333 188.623 501.262 189.171C501.191 189.719 500.69 190.105 500.142 190.034L493.677 189.194ZM457.516 170.768C456.976 170.656 456.628 170.126 456.741 169.585C456.853 169.045 457.383 168.697 457.924 168.81L464.362 170.149C464.903 170.261 465.25 170.791 465.138 171.331C465.025 171.872 464.496 172.219 463.955 172.107L457.516 170.768ZM443.689 168.55C443.141 168.479 442.755 167.977 442.826 167.43C442.897 166.882 443.399 166.496 443.946 166.567L450.411 167.406C450.959 167.477 451.345 167.979 451.274 168.527C451.203 169.074 450.701 169.461 450.154 169.389L443.689 168.55ZM470.443 173.958C469.895 173.886 469.508 173.385 469.58 172.837C469.651 172.289 470.152 171.903 470.7 171.974L477.165 172.814C477.713 172.885 478.099 173.386 478.028 173.934C477.957 174.482 477.455 174.868 476.907 174.797L470.443 173.958ZM433.982 166.03L434.389 164.072L433.982 166.03ZM433.982 166.03L430.763 165.36C429.457 165.089 429.864 163.131 431.17 163.402L434.389 164.072L437.609 164.741C438.914 165.013 438.507 166.971 437.201 166.699L433.982 166.03ZM487.489 176.845L487.897 174.887L487.489 176.845ZM487.897 174.887C489.202 175.158 488.795 177.116 487.489 176.845L484.27 176.176C482.965 175.904 483.372 173.946 484.677 174.217L487.897 174.887L491.116 175.556C492.421 175.828 492.014 177.786 490.709 177.514L487.489 176.845C486.184 176.574 486.591 174.615 487.897 174.887ZM497.196 179.365C496.648 179.294 496.262 178.792 496.333 178.245C496.404 177.697 496.906 177.311 497.454 177.382L503.919 178.221C504.466 178.292 504.853 178.794 504.782 179.342C504.71 179.889 504.209 180.276 503.661 180.205L497.196 179.365ZM480.871 338.155C480.74 338.691 480.198 339.02 479.662 338.888C479.125 338.757 478.797 338.216 478.928 337.679L480.491 331.291C480.622 330.755 481.163 330.426 481.7 330.557C482.236 330.689 482.565 331.23 482.434 331.766L480.871 338.155ZM471.17 334.294C471.039 334.831 470.498 335.159 469.961 335.028C469.425 334.897 469.096 334.356 469.228 333.819L470.79 327.431C470.922 326.895 471.463 326.566 471.999 326.697C472.536 326.829 472.864 327.37 472.733 327.906L471.17 334.294ZM487.209 311.606C487.078 312.142 486.536 312.471 486 312.34C485.463 312.208 485.135 311.667 485.266 311.131L486.829 304.743C486.96 304.206 487.501 303.878 488.038 304.009C488.574 304.14 488.903 304.681 488.772 305.218L487.209 311.606ZM477.508 307.746C477.377 308.282 476.836 308.611 476.299 308.48C475.763 308.348 475.434 307.807 475.566 307.271L477.128 300.882C477.26 300.346 477.801 300.017 478.337 300.149C478.874 300.28 479.202 300.821 479.071 301.358L477.508 307.746ZM484.51 325.348C484.419 325.892 483.905 326.261 483.36 326.171C482.815 326.081 482.446 325.566 482.536 325.021L483.601 318.589C483.691 318.044 484.206 317.676 484.751 317.766C485.296 317.856 485.664 318.371 485.574 318.916L484.51 325.348ZM474.809 321.487C474.719 322.032 474.204 322.401 473.659 322.311C473.114 322.221 472.746 321.706 472.836 321.161L473.901 314.729C473.991 314.184 474.506 313.816 475.05 313.906C475.595 313.996 475.964 314.511 475.874 315.056L474.809 321.487ZM490.848 298.799C490.757 299.344 490.243 299.712 489.698 299.622C489.153 299.532 488.784 299.017 488.874 298.472L489.939 292.041C490.029 291.496 490.544 291.127 491.089 291.217C491.634 291.308 492.002 291.822 491.912 292.367L490.848 298.799ZM481.147 294.939C481.057 295.484 480.542 295.852 479.997 295.762C479.452 295.672 479.084 295.157 479.174 294.612L480.239 288.181C480.329 287.636 480.844 287.267 481.388 287.357C481.933 287.447 482.302 287.962 482.212 288.507L481.147 294.939ZM493.547 285.057C493.416 285.594 492.874 285.922 492.338 285.791C491.801 285.66 491.473 285.119 491.604 284.582L493.167 278.194C493.298 277.657 493.839 277.329 494.376 277.46C494.912 277.591 495.241 278.133 495.11 278.669L493.547 285.057ZM483.846 281.197C483.715 281.734 483.174 282.062 482.637 281.931C482.101 281.8 481.772 281.258 481.904 280.722L483.466 274.334C483.598 273.797 484.139 273.469 484.675 273.6C485.212 273.731 485.54 274.273 485.409 274.809L483.846 281.197ZM497.186 272.25C497.095 272.795 496.581 273.164 496.036 273.074C495.491 272.983 495.122 272.469 495.212 271.924L496.277 265.492C496.367 264.947 496.882 264.579 497.427 264.669C497.972 264.759 498.34 265.274 498.25 265.819L497.186 272.25ZM487.485 268.39C487.395 268.935 486.88 269.304 486.335 269.213C485.79 269.123 485.422 268.608 485.512 268.064L486.577 261.632C486.667 261.087 487.182 260.718 487.726 260.809C488.271 260.899 488.64 261.414 488.55 261.959L487.485 268.39ZM461.47 330.434C461.339 330.971 460.797 331.299 460.261 331.168C459.724 331.037 459.396 330.495 459.527 329.959L461.09 323.571C461.221 323.034 461.762 322.706 462.299 322.837C462.835 322.968 463.164 323.51 463.033 324.046L461.47 330.434ZM467.808 303.886C467.677 304.422 467.135 304.751 466.599 304.619C466.062 304.488 465.734 303.947 465.865 303.41L467.428 297.022C467.559 296.486 468.1 296.157 468.637 296.289C469.173 296.42 469.502 296.961 469.371 297.498L467.808 303.886ZM465.109 317.627C465.018 318.172 464.504 318.541 463.959 318.451C463.414 318.36 463.045 317.846 463.136 317.301L464.2 310.869C464.29 310.324 464.805 309.956 465.35 310.046C465.895 310.136 466.263 310.651 466.173 311.196L465.109 317.627ZM471.447 291.079C471.356 291.624 470.842 291.992 470.297 291.902C469.752 291.812 469.383 291.297 469.473 290.752L470.538 284.32C470.628 283.776 471.143 283.407 471.688 283.497C472.233 283.587 472.601 284.102 472.511 284.647L471.447 291.079ZM474.146 277.337C474.015 277.873 473.473 278.202 472.937 278.071C472.4 277.94 472.072 277.398 472.203 276.862L473.766 270.474C473.897 269.937 474.438 269.609 474.975 269.74C475.511 269.871 475.84 270.412 475.709 270.949L474.146 277.337ZM477.785 264.53C477.694 265.075 477.18 265.444 476.635 265.353C476.09 265.263 475.721 264.748 475.811 264.203L476.876 257.772C476.966 257.227 477.481 256.858 478.026 256.948C478.571 257.039 478.939 257.553 478.849 258.098L477.785 264.53ZM451.769 326.574C451.638 327.111 451.097 327.439 450.56 327.308C450.024 327.177 449.695 326.635 449.827 326.099L451.389 319.711C451.521 319.174 452.062 318.846 452.598 318.977C453.135 319.108 453.463 319.65 453.332 320.186L451.769 326.574ZM458.107 300.025C457.976 300.562 457.435 300.89 456.898 300.759C456.362 300.628 456.033 300.087 456.165 299.55L457.727 293.162C457.859 292.626 458.4 292.297 458.936 292.428C459.473 292.56 459.801 293.101 459.67 293.637L458.107 300.025ZM455.408 313.767C455.318 314.312 454.803 314.681 454.258 314.59C453.713 314.5 453.345 313.985 453.435 313.441L454.5 307.009C454.59 306.464 455.105 306.095 455.65 306.186C456.194 306.276 456.563 306.791 456.473 307.335L455.408 313.767ZM461.746 287.219C461.656 287.763 461.141 288.132 460.596 288.042C460.051 287.952 459.683 287.437 459.773 286.892L460.838 280.46C460.928 279.915 461.443 279.547 461.987 279.637C462.532 279.727 462.901 280.242 462.811 280.787L461.746 287.219ZM464.445 273.477C464.314 274.013 463.773 274.342 463.236 274.211C462.7 274.079 462.371 273.538 462.503 273.002L464.065 266.614C464.197 266.077 464.738 265.749 465.274 265.88C465.811 266.011 466.139 266.552 466.008 267.089L464.445 273.477ZM468.084 260.67C467.994 261.215 467.479 261.583 466.934 261.493C466.389 261.403 466.021 260.888 466.111 260.343L467.176 253.912C467.266 253.367 467.781 252.998 468.325 253.088C468.87 253.179 469.239 253.693 469.149 254.238L468.084 260.67ZM442.069 322.714C441.938 323.25 441.396 323.579 440.86 323.448C440.324 323.317 439.995 322.775 440.126 322.239L441.689 315.851C441.82 315.314 442.361 314.986 442.898 315.117C443.434 315.248 443.763 315.789 443.632 316.326L442.069 322.714ZM448.407 296.165C448.276 296.702 447.734 297.03 447.198 296.899C446.662 296.768 446.333 296.227 446.464 295.69L448.027 289.302C448.158 288.766 448.699 288.437 449.236 288.568C449.772 288.699 450.101 289.241 449.97 289.777L448.407 296.165ZM445.708 309.907C445.617 310.452 445.103 310.821 444.558 310.73C444.013 310.64 443.644 310.125 443.735 309.58L444.799 303.149C444.889 302.604 445.404 302.235 445.949 302.325C446.494 302.416 446.862 302.93 446.772 303.475L445.708 309.907ZM452.046 283.358C451.955 283.903 451.441 284.272 450.896 284.182C450.351 284.091 449.982 283.577 450.073 283.032L451.137 276.6C451.227 276.055 451.742 275.687 452.287 275.777C452.832 275.867 453.2 276.382 453.11 276.927L452.046 283.358ZM454.745 269.617C454.614 270.153 454.072 270.482 453.536 270.35C452.999 270.219 452.671 269.678 452.802 269.141L454.365 262.753C454.496 262.217 455.037 261.888 455.574 262.02C456.11 262.151 456.439 262.692 456.308 263.229L454.745 269.617ZM458.384 256.81C458.293 257.355 457.779 257.723 457.234 257.633C456.689 257.543 456.32 257.028 456.411 256.483L457.475 250.051C457.565 249.507 458.08 249.138 458.625 249.228C459.17 249.318 459.538 249.833 459.448 250.378L458.384 256.81ZM432.368 318.854C432.237 319.39 431.696 319.719 431.16 319.588C430.623 319.456 430.295 318.915 430.426 318.379L431.988 311.991C432.12 311.454 432.661 311.126 433.197 311.257C433.734 311.388 434.062 311.929 433.931 312.466L432.368 318.854ZM438.706 292.305C438.575 292.842 438.034 293.17 437.497 293.039C436.961 292.908 436.633 292.366 436.764 291.83L438.326 285.442C438.458 284.905 438.999 284.577 439.535 284.708C440.072 284.839 440.4 285.381 440.269 285.917L438.706 292.305ZM436.007 306.047C435.917 306.592 435.402 306.96 434.857 306.87C434.312 306.78 433.944 306.265 434.034 305.72L435.099 299.289C435.189 298.744 435.704 298.375 436.249 298.465C436.793 298.556 437.162 299.07 437.072 299.615L436.007 306.047ZM442.345 279.498C442.255 280.043 441.74 280.412 441.195 280.322C440.65 280.231 440.282 279.717 440.372 279.172L441.437 272.74C441.527 272.195 442.042 271.826 442.587 271.917C443.131 272.007 443.5 272.522 443.41 273.067L442.345 279.498ZM445.044 265.757C444.913 266.293 444.372 266.622 443.835 266.49C443.299 266.359 442.97 265.818 443.102 265.281L444.664 258.893C444.796 258.357 445.337 258.028 445.873 258.159C446.41 258.291 446.738 258.832 446.607 259.368L445.044 265.757ZM448.683 252.95C448.593 253.494 448.078 253.863 447.533 253.773C446.988 253.683 446.62 253.168 446.71 252.623L447.775 246.191C447.865 245.646 448.38 245.278 448.925 245.368C449.469 245.458 449.838 245.973 449.748 246.518L448.683 252.95ZM429.006 288.445C428.875 288.982 428.333 289.31 427.797 289.179C427.261 289.048 426.932 288.506 427.063 287.97L428.626 281.582C428.757 281.045 429.298 280.717 429.835 280.848C430.371 280.979 430.7 281.52 430.569 282.057L429.006 288.445ZM426.307 302.187C426.217 302.732 425.702 303.1 425.157 303.01C424.612 302.92 424.243 302.405 424.334 301.86L425.398 295.428C425.488 294.884 426.003 294.515 426.548 294.605C427.093 294.695 427.462 295.21 427.371 295.755L426.307 302.187ZM432.645 275.638C432.555 276.183 432.04 276.552 431.495 276.461C430.95 276.371 430.581 275.856 430.672 275.312L431.736 268.88C431.826 268.335 432.341 267.966 432.886 268.057C433.431 268.147 433.8 268.662 433.709 269.206L432.645 275.638ZM423.449 311.8L421.507 311.324L423.449 311.8ZM423.449 311.8L422.668 314.994C422.351 316.289 420.408 315.814 420.725 314.518L421.507 311.324L422.288 308.13C422.605 306.835 424.548 307.31 424.231 308.606L423.449 311.8ZM436.125 258.702L434.183 258.227L436.125 258.702ZM434.183 258.227C434.499 256.932 436.442 257.407 436.125 258.702L435.344 261.896C435.027 263.192 433.084 262.716 433.401 261.421L434.183 258.227L434.964 255.033C435.281 253.738 437.224 254.213 436.907 255.508L436.125 258.702C435.809 259.998 433.866 259.522 434.183 258.227ZM438.983 249.089C438.893 249.634 438.378 250.003 437.833 249.913C437.288 249.823 436.919 249.308 437.01 248.763L438.074 242.331C438.164 241.786 438.679 241.418 439.224 241.508C439.769 241.598 440.137 242.113 440.047 242.658L438.983 249.089Z" fill="#002D6F"/>
</g>
<path d="M708.382 347.844C633.615 334.61 604.192 293.724 615.255 230.739C626.271 168.023 667.802 139.976 742.569 153.21C817.067 166.396 846.759 207.33 835.791 269.775C824.775 332.49 782.88 361.031 708.382 347.844ZM715.511 307.257C758.436 314.855 781.763 296.874 788.008 261.316C794.207 226.029 778.365 201.395 735.44 193.797C692.516 186.199 669.284 203.637 663.038 239.195C656.745 275.025 672.586 299.659 715.511 307.257Z" fill="#56AAFF"/>
<path d="M708.382 347.844C633.615 334.61 604.192 293.724 615.255 230.739C626.271 168.023 667.802 139.976 742.569 153.21C817.067 166.396 846.759 207.33 835.791 269.775C824.775 332.49 782.88 361.031 708.382 347.844ZM715.511 307.257C758.436 314.855 781.763 296.874 788.008 261.316C794.207 226.029 778.365 201.395 735.44 193.797C692.516 186.199 669.284 203.637 663.038 239.195C656.745 275.025 672.586 299.659 715.511 307.257Z" fill="#56AAFF"/>
<path d="M637.34 179.285C650.567 185.411 670.622 193.885 686.599 200.1C674.117 207.861 666.459 221.271 663.261 239.408C656.957 275.159 672.879 299.75 715.994 307.352C759.11 314.954 782.53 297.022 788.786 261.542C793.693 233.712 784.775 212.517 759.532 201.101L795.019 170.845C831.327 191.121 844.724 224.958 836.781 270.006C825.747 332.584 783.683 361.045 708.853 347.851C633.754 334.609 604.183 293.795 615.265 230.946C619.026 209.619 626.348 192.312 637.34 179.285Z" fill="#56AAFF"/>
<path fill-rule="evenodd" clip-rule="evenodd" d="M737.931 115.666C735.409 113.523 733.633 110.483 733.136 106.948C732.06 99.2915 737.395 92.2121 745.052 91.136C752.708 90.06 759.788 95.3946 760.864 103.051C761.94 110.708 756.605 117.787 748.948 118.864C748.118 118.98 747.295 119.022 746.485 118.993C762.28 126.185 768.452 136.02 765 148.5C760.667 164.166 760.667 176 765 184L682 168C686.853 161.451 689.853 156.451 691 153C696.675 135.921 696.733 124.5 697.5 124.5C698.5 124.5 710.167 121 732.5 114C734.391 114.533 736.201 115.088 737.931 115.666Z" fill="#002D6F"/>
<path d="M760.486 148.002C760.554 132.002 749.421 117.603 733.152 114.145L728.262 113.106C709.624 109.144 691.304 121.042 687.343 139.679L685.159 149.95C682.404 162.915 690.68 175.659 703.645 178.415L715.973 181.035L708.926 214.297C712.642 218.432 718.333 221.167 726 222.5C733.666 223.834 740.132 223.008 745.397 220.025L757.649 161.592C758.54 159.529 759.24 157.347 759.725 155.064C760.224 152.717 760.472 150.375 760.486 148.065L760.5 148L760.486 148.002Z" fill="#FF9C99"/>
<mask id="mask2" mask-type="alpha" maskUnits="userSpaceOnUse" x="684" y="112" width="77" height="112">
<path d="M760.486 148.002C760.554 132.002 749.421 117.603 733.152 114.145L728.262 113.106C709.624 109.144 691.304 121.042 687.343 139.679L685.159 149.95C682.404 162.915 690.68 175.659 703.645 178.415L715.973 181.035L708.926 214.297C712.642 218.432 718.333 221.167 726 222.5C733.666 223.834 740.132 223.008 745.397 220.025L757.649 161.592C758.54 159.529 759.24 157.347 759.725 155.064C760.224 152.717 760.472 150.375 760.486 148.065L760.5 148L760.486 148.002Z" fill="#FF9C99"/>
</mask>
<g mask="url(#mask2)">
<path fill-rule="evenodd" clip-rule="evenodd" d="M715 181L734 180.5L713 187L715 181ZM688.643 133.563C692.6 123.902 697.142 117.184 702.269 113.409C707.396 109.634 716.951 105.974 730.933 102.427L772.126 130.392L757.5 170L754 182L749.819 162.348L729.68 142.285L715.053 139.176L716.268 133.459L706.52 137.363L688.643 133.563Z" fill="#002D6F"/>
</g>
<path d="M584.916 453.311L568.696 509.877L516.452 494.896L504.287 537.321L437.117 518.06L449.282 475.636L264.937 422.776L281.157 366.209L511.815 257.558L578.985 276.819L532.672 438.33L584.916 453.311ZM354.219 387.139L465.725 419.113L493.013 323.948L354.219 387.139Z" fill="#56AAFF"/>
<mask id="mask3" mask-type="alpha" maskUnits="userSpaceOnUse" x="264" y="257" width="321" height="281">
<path d="M584.916 453.311L568.696 509.877L516.452 494.896L504.287 537.321L437.117 518.06L449.282 475.636L264.937 422.776L281.157 366.209L511.815 257.558L578.985 276.819L532.672 438.33L584.916 453.311ZM354.219 387.139L465.725 419.113L493.013 323.948L354.219 387.139Z" fill="#56AAFF"/>
</mask>
<g mask="url(#mask3)">
<path fill-rule="evenodd" clip-rule="evenodd" d="M406 408.5L414 488L395.5 535.5L428 554L481 600L492.5 590.5C500.729 581.788 505.396 574.621 506.5 569C507.604 563.379 525.437 563.379 560 569L492.5 384.5L406 408.5Z" fill="#002D6F"/>
</g>
<path d="M1131.22 417.351L1162.41 467.255L1116.32 496.055L1139.7 533.483L1080.45 570.513L1057.06 533.085L894.425 634.709L863.241 584.805L936.838 340.692L996.097 303.662L1085.13 446.151L1131.22 417.351ZM927.682 544.515L1026.06 483.044L973.594 399.087L927.682 544.515Z" fill="#56AAFF"/>
<mask id="mask4" mask-type="alpha" maskUnits="userSpaceOnUse" x="863" y="303" width="300" height="332">
<path d="M1131.22 417.35L1162.41 467.254L1116.32 496.055L1139.7 533.483L1080.45 570.512L1057.06 533.084L894.425 634.708L863.241 584.804L936.838 340.691L996.097 303.661L1085.13 446.151L1131.22 417.35ZM927.682 544.514L1026.06 483.043L973.594 399.086L927.682 544.514Z" fill="#56AAFF"/>
</mask>
<g mask="url(#mask4)">
<path fill-rule="evenodd" clip-rule="evenodd" d="M893 518.499C891.667 518.499 883.5 546.999 868.5 603.999L895 643.999L986.5 604.499L972 511.499C920.667 516.166 894.333 518.499 893 518.499Z" fill="#002D6F"/>
</g>
<path fill-rule="evenodd" clip-rule="evenodd" d="M706.5 137.5L683 132.5C694.667 113.833 710.5 107.5 730.5 113.5C747.402 118.57 734.095 118.072 711 126C708.178 126.968 706.678 130.802 706.5 137.5Z" fill="#002D6F"/>
<path d="M691.357 145.368C691.452 145.856 691.501 146.411 691.501 146.999C691.501 148.931 690.978 150.499 690.001 150.499C689.023 150.499 688.501 148.931 688.501 146.999C688.501 146.066 688.623 145.218 688.859 144.59C686.46 144.029 684.393 144.072 682.533 144.705C682.01 144.883 681.442 144.604 681.264 144.081C681.086 143.558 681.365 142.99 681.888 142.812C684.71 141.851 687.849 142.023 691.523 143.284C693.291 143.891 695.332 145.412 697.697 147.841C698.082 148.236 698.074 148.87 697.678 149.255C697.282 149.64 696.649 149.632 696.264 149.236C694.338 147.258 692.691 145.97 691.357 145.368ZM719.266 151.976C719.421 152.548 719.501 153.246 719.501 153.999C719.501 155.931 718.978 157.499 718.001 157.499C717.023 157.499 716.501 155.931 716.501 153.999C716.501 152.969 716.649 152.042 716.937 151.401C714.924 151.05 713.15 151.154 711.533 151.705C711.01 151.883 710.442 151.604 710.264 151.081C710.086 150.558 710.365 149.99 710.888 149.812C713.71 148.851 716.849 149.023 720.523 150.284C722.291 150.891 724.332 152.412 726.697 154.841C727.082 155.236 727.074 155.87 726.678 156.255C726.282 156.64 725.649 156.632 725.264 156.236C723.099 154.012 721.285 152.66 719.873 152.176C719.669 152.105 719.466 152.039 719.266 151.976ZM706.351 149.026L700.609 158.301L704.197 159.019C704.738 159.127 705.09 159.654 704.981 160.195C704.873 160.737 704.346 161.088 703.805 160.98L698.805 159.98C698.121 159.843 697.783 159.066 698.15 158.473L704.65 147.973C704.941 147.503 705.557 147.358 706.027 147.649C706.497 147.94 706.642 148.556 706.351 149.026ZM697.597 166.495C697.047 166.548 696.558 166.145 696.505 165.596C696.452 165.046 696.855 164.557 697.404 164.504L712.904 163.004C713.454 162.951 713.943 163.353 713.996 163.903C714.049 164.453 713.647 164.941 713.097 164.995L697.597 166.495Z" fill="#002D6F"/>
<path fill-rule="evenodd" clip-rule="evenodd" d="M740.212 155.257C745.346 150.123 750.283 149.728 755.022 154.072C762.13 160.589 754.083 172.77 745.603 172.589C739.95 172.468 738.153 166.691 740.212 155.257Z" fill="#FF9C99"/>
<path fill-rule="evenodd" clip-rule="evenodd" d="M426.945 408.051L418.64 428.22C417.046 432.093 413.467 434.788 409.304 435.25C408.757 435.311 408.203 435.277 407.668 435.149C405.102 434.536 403.519 431.96 404.132 429.394L418.554 369L420.789 368.034C431.914 363.223 444.299 362.151 456.085 364.98C480.494 370.838 494.317 377.678 497.554 385.5C501.343 394.657 508.871 417.422 520.137 453.795C521.169 457.129 519.304 460.669 515.97 461.701C515.915 461.718 515.86 461.735 515.804 461.75C512.267 462.741 508.56 460.864 507.264 457.427L490.316 412.496C489.066 409.183 485.37 407.507 482.054 408.75C478.657 410.024 476.794 413.68 477.76 417.177L488.244 455.135C489.438 459.458 486.901 463.93 482.579 465.124C482.405 465.172 482.23 465.214 482.054 465.25C477.274 466.234 472.552 463.337 471.264 458.63L460.869 420.635C459.931 417.205 456.391 415.186 452.961 416.124C452.824 416.162 452.688 416.204 452.554 416.25C448.845 417.534 446.681 421.387 447.513 425.222L455.956 464.134C456.598 467.092 454.72 470.011 451.762 470.653C451.201 470.774 450.625 470.807 450.054 470.75C445.554 470.3 441.818 467.077 440.713 462.691L426.945 408.051ZM940.715 496.743C949.141 494.884 957.947 497.163 964.412 502.877L975.867 513L964.867 539.5L940.836 599.875C939.249 603.863 934.808 605.899 930.75 604.5C930.661 604.469 930.572 604.437 930.484 604.403C926.685 602.927 924.801 598.651 926.276 594.851L941.458 555.758C941.545 555.536 941.614 555.307 941.667 555.075C942.263 552.454 940.621 549.846 938 549.25C937.975 549.245 937.951 549.239 937.926 549.234C934.92 548.594 931.965 550.511 931.325 553.517L922.667 594.172C922.644 594.279 922.619 594.385 922.592 594.491C921.534 598.592 917.351 601.059 913.25 600C908.883 598.873 906.128 594.564 906.939 590.127L914.452 549.007C914.967 546.189 913.211 543.454 910.434 542.75C910.202 542.691 909.966 542.652 909.727 542.633C907.357 542.439 905.279 544.203 905.085 546.573L901.759 587.227C901.752 587.306 901.745 587.384 901.736 587.462C901.198 592.44 896.727 596.038 891.75 595.5C886.603 594.944 882.857 590.357 883.34 585.203C886.67 549.648 890.179 527.414 893.867 518.5C897.335 510.12 912.951 502.868 940.715 496.743Z" fill="#FF9C99"/>
<path fill-rule="evenodd" clip-rule="evenodd" d="M695.5 791.5L587.5 862.5L509.5 644L695.5 791.5ZM969 838L809 828.5L778 565L864 585L969 838Z" fill="#FF567B"/>
<path d="M754.58 352.891C754.364 352.382 754.601 351.795 755.109 351.58C755.618 351.364 756.205 351.601 756.421 352.109C765.334 373.109 777.349 383.5 792.5 383.5C793.052 383.5 793.5 383.948 793.5 384.5C793.5 385.052 793.052 385.5 792.5 385.5C776.428 385.5 763.776 374.558 754.58 352.891ZM738.431 423.598C738.929 423.836 739.141 424.432 738.903 424.931C738.665 425.429 738.068 425.641 737.569 425.403L715.569 414.903C715.071 414.665 714.86 414.068 715.098 413.569C715.336 413.071 715.932 412.86 716.431 413.098L738.431 423.598ZM676.015 258.174C675.919 257.63 676.282 257.111 676.826 257.015C677.37 256.919 677.889 257.283 677.985 257.826L680.985 274.826C681.081 275.37 680.718 275.889 680.174 275.985C679.63 276.081 679.111 275.718 679.015 275.174L676.015 258.174Z" fill="#002D6F"/>
<path d="M471.5 437C477.299 437 482 432.299 482 426.5C482 420.701 477.299 416 471.5 416C465.701 416 461 420.701 461 426.5C461 432.299 465.701 437 471.5 437Z" fill="#FFE694"/>
<path fill-rule="evenodd" clip-rule="evenodd" d="M355.386 596.673L368.667 604.411L380 596L377.333 609.458L386 613.159L378.667 618.206L381.667 630.991L370.333 623.589L362 632L360.333 620.224C353.444 617.084 350 615.514 350 615.514C350 615.514 353.444 613.495 360.333 609.458L355.386 596.673ZM1003.25 646.989L1023.08 639.071L1023.56 619.475L1036.01 633.901L1047.47 627.581L1046.72 639.922L1063.28 647.571L1045.49 653.646L1047.57 669.958L1033.26 661.713C1023.93 666.568 1019.27 668.995 1019.27 668.995C1019.27 668.995 1020 663.499 1021.47 652.507L1003.25 646.989ZM678.08 606L698 617.5L715 605L711 625L724 630.5L713 638L717.5 657L700.5 646L688 658.5L685.5 641C675.167 636.333 670 634 670 634C670 634 675.167 631 685.5 625L678.08 606ZM599.536 362.692L613.185 370.645L624.833 362L622.093 375.832L631 379.636L623.463 384.822L626.546 397.963L614.898 390.355L606.333 399L604.62 386.897C597.54 383.67 594 382.056 594 382.056C594 382.056 597.54 379.981 604.62 375.832L599.536 362.692Z" fill="#56AAFF"/>
</svg>
