<?xml version="1.0" encoding="UTF-8" standalone="no"?>
<svg xmlns="http://www.w3.org/2000/svg" viewBox="0 0 100 100">
    <defs id="defs2">
        <marker id="Arrow1Lend" orient="auto" refX="0.0" refY="0.0" style="overflow:visible">
            <path id="path1408" d="M 0.0,0.0 L 5.0,-5.0 L -12.5,0.0 L 5.0,5.0 L 0.0,0.0 z " style="fill-rule:evenodd;stroke:none;stroke-width:1pt;stroke-opacity:1;fill:#000000;fill-opacity:1" transform="scale(0.8) rotate(180) translate(12.5,0)"/>
        </marker>
        <marker id="Arrow2Lend" orient="auto" refX="0.0" refY="0.0" style="overflow:visible">
            <path id="path1426" d="M 8.7185878,4.0337352 L -2.2072895,0.016013256 L 8.7185884,-4.0017078 C 6.9730900,-1.6296469 6.9831476,1.6157441 8.7185878,4.0337352 z " style="fill-rule:evenodd;stroke-width:0.625;stroke-linejoin:round;stroke:#000000;stroke-opacity:1;fill:#000000;fill-opacity:1" transform="scale(1.1) rotate(180) translate(1,0)"/>
        </marker>
    </defs>
    <g id="layer1" style="display:inline;opacity:1" transform="translate(0,-270.54165)">
        <rect id="rect907" width="98.115997" height="98.185135" x="1.1097434" y="271.38519" style="opacity:0.98400005;fill:#8da8ce;fill-opacity:1;stroke:#000000;stroke-width:0.97898889;stroke-linecap:square;stroke-linejoin:bevel;stroke-miterlimit:4;stroke-dasharray:none;stroke-opacity:1"/>
    </g>
    <g id="layer2" style="display:inline">
        <g id="g1319" style="fill:#edfe31;fill-opacity:1" transform="translate(-18.939511,-5.3667954)">
            <path id="path1287" d="m 40.925781,28.314453 c -7.107912,-1e-6 -12.86914,5.761229 -12.86914,12.869141 0,3.420979 4.746275,9.95463 3.390625,16.246094 -0.05597,0.259745 -0.08121,0.492008 -0.126954,0.742187 H 49.992188 C 49.976758,58.112782 49.965062,58.059684 49.949219,58 c -1.707631,-6.43286 3.847656,-13.287986 3.847656,-16.816406 0,-7.107912 -5.763182,-12.869141 -12.871094,-12.869141 z" style="opacity:0.98400005;fill:#edfe31;fill-opacity:1;stroke:#000000;stroke-width:1;stroke-linecap:square;stroke-linejoin:bevel;stroke-miterlimit:4;stroke-dasharray:none;stroke-opacity:1"/>
            <rect id="rect1298" width="16.98707" height="1.2354295" x="31.982655" y="60.985184" rx="1.0400249" ry="0.46328613" style="opacity:0.98400005;fill:#74787a;fill-opacity:1;stroke:#000000;stroke-width:0.59927338;stroke-linecap:square;stroke-linejoin:bevel;stroke-miterlimit:4;stroke-dasharray:none;stroke-opacity:1"/>
            <rect id="rect1303" width="15.055223" height="1.0949308" x="32.948578" y="65.055435" rx="0.92174846" ry="0.41059911" style="opacity:0.98400005;fill:#74787a;fill-opacity:1;stroke:#000000;stroke-width:0.53112125;stroke-linecap:square;stroke-linejoin:bevel;stroke-miterlimit:4;stroke-dasharray:none;stroke-opacity:1"/>
            <path id="path1307" d="m 40.371221,70.304083 a 5.6177791,1.481102 0 0 0 5.618577,-1.480882 5.6177791,1.481102 0 0 0 -0.0065,-0.04149 c -0.100809,-0.0083 -0.204949,-0.01556 -0.318067,-0.01556 l -10.587978,-2e-6 c -0.111905,6e-6 -0.214888,0.0066 -0.314784,0.0147 a 5.6177791,1.481102 0 0 0 -0.0082,0.04235 5.6177791,1.481102 0 0 0 5.616938,1.480882 z" style="opacity:0.98400005;fill:#74787a;fill-opacity:1;stroke:#000000;stroke-width:0.60954744;stroke-linecap:square;stroke-linejoin:bevel;stroke-miterlimit:4;stroke-dasharray:none;stroke-opacity:1"/>
            <path id="path1312" d="m 36.550837,34.105533 c 0,0 -6.498868,1.141847 -3.861005,9.26641" style="fill:#edfe31;fill-opacity:1;stroke:#000000;stroke-width:1px;stroke-linecap:round;stroke-linejoin:miter;stroke-opacity:1"/>
        </g>
    </g>
    <g id="layer3" style="display:inline">
        <path id="rect1333" d="m 70.498468,8.7655979 c -0.325856,0 -0.587891,0.231493 -0.587891,0.519531 v 4.3593751 a 12.097812,12.097812 0 0 0 -3.078125,1.265625 L 63.75628,11.833957 c -0.203673,-0.203674 -0.552788,-0.181587 -0.783203,0.04883 l -3.40625,3.408203 c -0.230415,0.230415 -0.252502,0.57953 -0.04883,0.783203 l 3.042969,3.041016 a 12.097812,12.097812 0 0 0 -1.324219,3.113281 h -4.267576 c -0.288038,0 -0.519531,0.262035 -0.519531,0.587891 v 4.818359 c 0,0.325856 0.231493,0.587891 0.519531,0.587891 h 4.201172 a 12.097812,12.097812 0 0 0 1.294922,3.207031 l -2.947266,2.947266 c -0.203674,0.203673 -0.181587,0.552788 0.04883,0.783203 l 3.40625,3.408203 c 0.230415,0.230415 0.57953,0.250549 0.783203,0.04687 l 2.914063,-2.914063 a 12.097812,12.097812 0 0 0 3.240234,1.357422 v 4.107422 c 0,0.288038 0.262035,0.519532 0.587891,0.519532 h 4.820312 c 0.325856,0 0.587891,-0.231494 0.587891,-0.519532 v -4.101562 a 12.097812,12.097812 0 0 0 3.242187,-1.361328 l 2.91211,2.912109 c 0.203673,0.203674 0.552788,0.18354 0.783203,-0.04687 l 3.40625,-3.408203 c 0.230415,-0.230415 0.252502,-0.57953 0.04883,-0.783203 l -2.943359,-2.94336 a 12.097812,12.097812 0 0 0 1.291015,-3.210937 h 4.201172 c 0.288038,0 0.519531,-0.262035 0.519531,-0.587891 v -4.818359 c 0,-0.325856 -0.231493,-0.587891 -0.519531,-0.587891 h -4.257812 a 12.097812,12.097812 0 0 0 -1.332032,-3.113281 l 3.041016,-3.041016 c 0.203674,-0.203673 0.181587,-0.552788 -0.04883,-0.783203 l -3.40625,-3.408203 c -0.230415,-0.230415 -0.57953,-0.252502 -0.783203,-0.04883 l -3.074219,3.074219 a 12.097812,12.097812 0 0 0 -3.08008,-1.257813 V 9.2851289 c 0,-0.288038 -0.262035,-0.519531 -0.587891,-0.519531 z M 72.908624,19.30466 a 6.0489058,6.0489058 0 0 1 6.048828,6.048828 6.0489058,6.0489058 0 0 1 -6.048828,6.048828 6.0489058,6.0489058 0 0 1 -6.048828,-6.048828 6.0489058,6.0489058 0 0 1 6.048828,-6.048828 z" style="opacity:0.98400005;fill:#2b96ff;fill-opacity:1;stroke:#000000;stroke-width:0.89890301;stroke-linecap:round;stroke-linejoin:bevel;stroke-miterlimit:4;stroke-dasharray:none;stroke-opacity:1"/>
        <path id="path1381" d="m 59.502727,65.447047 c -0.06454,0.240661 0.05461,0.480005 0.267361,0.537008 l 3.219683,0.862712 a 9.2502184,9.2502184 0 0 0 0.325595,2.523863 l -2.880726,1.663187 c -0.190733,0.110142 -0.243512,0.372336 -0.118929,0.58811 l 1.843107,3.190207 c 0.124584,0.215776 0.378055,0.301171 0.56878,0.191058 l 2.848173,-1.645634 a 9.2502184,9.2502184 0 0 0 2.037299,1.594135 l -0.844543,3.15188 c -0.05696,0.212738 0.09071,0.435566 0.331385,0.50005 l 3.55867,0.953546 c 0.24067,0.06454 0.480014,-0.05461 0.537016,-0.267364 l 0.831398,-3.102841 a 9.2502184,9.2502184 0 0 0 2.624866,-0.321721 l 1.593492,2.760008 c 0.110144,0.190731 0.372333,0.243511 0.58811,0.118929 l 3.191278,-1.841249 c 0.215776,-0.124584 0.299736,-0.378437 0.189613,-0.569174 L 78.638816,73.604842 A 9.2502184,9.2502184 0 0 0 80.2826,71.480351 l 3.033599,0.812851 c 0.212735,0.05696 0.435565,-0.09072 0.500051,-0.331386 l 0.953927,-3.560117 c 0.06454,-0.240664 -0.05461,-0.480005 -0.267362,-0.537009 l -3.029272,-0.811693 a 9.2502184,9.2502184 0 0 0 -0.363808,-2.663966 l 2.727085,-1.57449 c 0.190733,-0.110132 0.244947,-0.371947 0.120398,-0.587721 L 82.114111,59.036619 C 81.989527,58.820844 81.736059,58.735441 81.545325,58.84556 l -2.756346,1.591379 a 9.2502184,9.2502184 0 0 0 -2.116007,-1.588935 l 0.831404,-3.102834 c 0.05695,-0.212741 -0.09071,-0.435565 -0.33138,-0.500051 L 73.61432,54.291565 c -0.24067,-0.06448 -0.480015,0.05467 -0.537015,0.267368 l -0.842609,3.144671 a 9.2502184,9.2502184 0 0 0 -2.562967,0.367682 L 68.027541,55.223485 C 67.917409,55.032752 67.655208,54.979973 67.43943,55.104553 l -3.191279,1.841251 c -0.215775,0.124584 -0.301178,0.378047 -0.191058,0.568783 l 1.662131,2.878894 a 9.2502184,9.2502184 0 0 0 -1.538519,2.025922 l -3.224012,-0.863877 c -0.212735,-0.05696 -0.435564,0.09072 -0.500043,0.331388 z m 8.260751,0.305603 a 4.625109,4.625109 0 0 1 5.664506,-3.27041 4.625109,4.625109 0 0 1 3.270404,5.664508 4.625109,4.625109 0 0 1 -5.664508,3.270409 4.625109,4.625109 0 0 1 -3.270402,-5.664507 z" style="opacity:0.98400005;fill:#2b96ff;fill-opacity:1;stroke:#000000;stroke-width:0.6873185;stroke-linecap:round;stroke-linejoin:bevel;stroke-miterlimit:4;stroke-dasharray:none;stroke-opacity:1"/>
    </g>
    <g id="layer4" style="display:inline"/>
</svg>
