<?xml version="1.0" encoding="UTF-8" standalone="no"?>
<svg xmlns="http://www.w3.org/2000/svg" viewBox="0 0 100 100">
    <defs id="defs2">
        <linearGradient id="linearGradient1422">
            <stop id="stop1418" offset="0" style="stop-color:#88bfff;stop-opacity:1"/>
            <stop id="stop1420" offset="1" style="stop-color:#00ccff;stop-opacity:1"/>
        </linearGradient>
        <linearGradient id="linearGradient1414">
            <stop id="stop1410" offset="0" style="stop-color:#8199f1;stop-opacity:1"/>
            <stop id="stop1412" offset="1" style="stop-color:#b380ff;stop-opacity:1"/>
        </linearGradient>
        <linearGradient id="linearGradient1406">
            <stop id="stop1402" offset="0" style="stop-color:#9a99ff;stop-opacity:1"/>
            <stop id="stop1404" offset="1" style="stop-color:#ff80b2;stop-opacity:1"/>
        </linearGradient>
        <linearGradient id="linearGradient1398">
            <stop id="stop1394" offset="0" style="stop-color:#abaeff;stop-opacity:1"/>
            <stop id="stop1396" offset="1" style="stop-color:#b380ff;stop-opacity:1"/>
        </linearGradient>
        <linearGradient id="linearGradient1390">
            <stop id="stop1386" offset="0" style="stop-color:#50b1ea;stop-opacity:1"/>
            <stop id="stop1388" offset="1" style="stop-color:#0066ff;stop-opacity:1"/>
        </linearGradient>
        <linearGradient id="linearGradient833">
            <stop id="stop829" offset="0" style="stop-color:#ff5555;stop-opacity:1"/>
            <stop id="stop831" offset="1" style="stop-color:#800000;stop-opacity:1"/>
        </linearGradient>
        <linearGradient id="linearGradient835" x1="50.257401" x2="44.787643" y1="28.828829" y2="28.893179" gradientTransform="rotate(-180,47.588495,178.48316)" gradientUnits="userSpaceOnUse" href="#linearGradient833"/>
        <filter id="filter1352" width="1.0607086" height="1.0547942" x="-0.030354303" y="-0.027397121" style="color-interpolation-filters:sRGB">
            <feGaussianBlur id="feGaussianBlur1354" stdDeviation="0.85131381"/>
        </filter>
        <linearGradient id="linearGradient1392" x1="34.749035" x2="44.658943" y1="37.323036" y2="39.768341" gradientUnits="userSpaceOnUse" href="#linearGradient1390"/>
        <linearGradient id="linearGradient1400" x1="46.203346" x2="55.727158" y1="34.749035" y2="54.826256" gradientUnits="userSpaceOnUse" href="#linearGradient1398"/>
        <linearGradient id="linearGradient1408" x1="57.786358" x2="66.924065" y1="59.202061" y2="32.303734" gradientUnits="userSpaceOnUse" href="#linearGradient1406"/>
        <linearGradient id="linearGradient1416" x1="68.339767" x2="77.477478" y1="38.095238" y2="58.429859" gradientUnits="userSpaceOnUse" href="#linearGradient1414"/>
        <linearGradient id="linearGradient1424" x1="80.823677" x2="88.416992" y1="68.597168" y2="43.243244" gradientUnits="userSpaceOnUse" href="#linearGradient1422"/>
        <filter id="filter3492" width="1.1285464" height="1.1043643" x="-0.064273202" y="-0.052182158" style="color-interpolation-filters:sRGB">
            <feGaussianBlur id="feGaussianBlur3494" stdDeviation="0.91191259"/>
        </filter>
    </defs>
    <g id="layer2" style="display:inline">
        <g id="g3574" transform="matrix(1.387042,0,0,1.2495745,-31.939634,-7.7444945)">
            <g id="g1359" transform="translate(-0.64350062,1.0296011)">
                <rect id="rect1226" width="67.310165" height="74.57547" x="26.063509" y="8.4168167" ry="4.3557415" style="opacity:1;fill:#cdcacc;fill-opacity:1;stroke:none;stroke-width:0.98862338;stroke-linecap:round;stroke-linejoin:round;stroke-miterlimit:4;stroke-dasharray:none;stroke-opacity:1;filter:url(#filter1352)"/>
                <rect id="rect880" width="67.310165" height="74.57547" x="24.647808" y="5.3280134" ry="4.3557415" style="opacity:1;fill:none;fill-opacity:1;stroke:none;stroke-width:0.98862338;stroke-linecap:round;stroke-linejoin:round;stroke-miterlimit:4;stroke-dasharray:none;stroke-opacity:1"/>
                <rect id="rect890" width="67.310165" height="74.57547" x="26.063509" y="8.4168167" ry="4.3557415" style="opacity:1;fill:#ffffff;fill-opacity:1;stroke:none;stroke-width:0.98862338;stroke-linecap:round;stroke-linejoin:round;stroke-miterlimit:4;stroke-dasharray:none;stroke-opacity:1"/>
            </g>
        </g>
    </g>
    <g id="layer3" style="display:inline">
        <g id="g1431" transform="matrix(1.175705,0,0,1.175705,-22.712133,-1.8248342)">
            <rect id="rect1376" width="10.03861" height="58.68726" x="34.749035" y="15.057915" ry="0.9009009" style="opacity:1;fill:url(#linearGradient1392);fill-opacity:1;stroke:none;stroke-width:0.52223295;stroke-linecap:round;stroke-linejoin:round;stroke-miterlimit:4;stroke-dasharray:none;stroke-opacity:1"/>
            <rect id="rect1378" width="10.03861" height="53.796654" x="45.787643" y="19.948521" ry="0.51479977" style="opacity:1;fill:url(#linearGradient1400);fill-opacity:1;stroke:none;stroke-width:0.5;stroke-linecap:round;stroke-linejoin:round;stroke-miterlimit:4;stroke-dasharray:none;stroke-opacity:1"/>
            <rect id="rect1380" width="10.03861" height="36.036037" x="78.903473" y="37.709137" ry="0.77220076" style="opacity:1;fill:url(#linearGradient1424);fill-opacity:1;stroke:none;stroke-width:0.40922379;stroke-linecap:round;stroke-linejoin:round;stroke-miterlimit:4;stroke-dasharray:none;stroke-opacity:1"/>
            <rect id="rect1382" width="10.03861" height="59.330761" x="56.826256" y="14.414413" ry="0.64350063" style="opacity:1;fill:url(#linearGradient1408);fill-opacity:1;stroke:none;stroke-width:0.52508825;stroke-linecap:round;stroke-linejoin:round;stroke-miterlimit:4;stroke-dasharray:none;stroke-opacity:1"/>
            <rect id="rect1384" width="10.03861" height="50.965252" x="67.864868" y="22.779922" ry="0.38609964" style="opacity:1;fill:url(#linearGradient1416);fill-opacity:1;stroke:none;stroke-width:0.48666424;stroke-linecap:round;stroke-linejoin:round;stroke-miterlimit:4;stroke-dasharray:none;stroke-opacity:1"/>
        </g>
    </g>
    <g id="layer1" style="display:inline" transform="translate(0,-270.54165)">
        <g id="g2507" transform="matrix(0.98784257,-0.57033116,0.57033116,0.98784257,-191.22857,89.773509)">
            <g id="g2692">
                <g id="g2780" transform="translate(8.5169774,-5.4854283)">
                    <g id="g3568" transform="translate(3.7289277,-8.1984353)">
                        <g id="g3000" style="fill:#545258;fill-opacity:0.76556779;filter:url(#filter3492)">
                            <g id="g2998" style="fill:#545258;fill-opacity:0.76556779">
                                <g id="g2996" style="fill:#545258;fill-opacity:0.76556779">
                                    <g id="g2984" style="fill:#545258;fill-opacity:0.76556779">
                                        <g id="g2982" style="fill:#545258;fill-opacity:0.76556779">
                                            <path id="path2930" d="m 56.28731,289.21207 10.349722,-1.66989 c 0,0 0.69444,2.81413 2.134605,6.02679 -0.166172,0.94164 -7.269464,3.29531 -9.045466,3.21458 -2.368003,-2.17964 -3.438861,-7.57148 -3.438861,-7.57148 z" style="fill:#545258;fill-opacity:0.76556779;stroke:none;stroke-width:1px;stroke-linecap:butt;stroke-linejoin:miter;stroke-opacity:1"/>
                                            <path id="path2932" d="m 62.480641,288.99064 c 0,0 0.07138,1.50374 2.010469,2.67666 0,0 -2.236498,-1.17893 -2.010469,-2.67666 z" style="fill:#545258;fill-opacity:0.76556779;stroke:none;stroke-width:0.71106839px;stroke-linecap:butt;stroke-linejoin:miter;stroke-opacity:1"/>
                                            <path id="path2934" d="m 56.28731,289.21207 c 0,0 0.499561,0.53628 1.184571,0.49208 1.425262,0.0884 9.507656,-1.5322 9.165151,-2.16197 -0.04419,-0.93913 -0.867346,-5.39208 -0.867346,-5.39208 -1.485736,-0.98096 -10.204126,2.06453 -10.806497,0.88617 0.612555,3.99084 1.324121,6.1758 1.324121,6.1758 z" style="fill:#545258;fill-opacity:0.76556779;stroke:none;stroke-width:1px;stroke-linecap:butt;stroke-linejoin:miter;stroke-opacity:1"/>
                                            <path id="path2936" d="m 57.002531,283.93849 1.157497,4.58065 c 0,0 0.204327,0.79965 0.156029,0.0433 -0.04835,-0.75627 -1.192613,-4.68127 -1.192613,-4.68127 0,0 -0.128527,-0.61134 -0.12097,0.057 z" style="fill:#545258;fill-opacity:0.76556779;stroke:none;stroke-width:0.67059511px;stroke-linecap:butt;stroke-linejoin:miter;stroke-opacity:1"/>
                                            <path id="path2938" d="m 59.438238,253.74639 c 0,0 -2.724325,0.3352 -3.195313,4.44336 -0.282639,2.4653 1.990896,13.78158 2.214844,15.42383 0.223942,1.6423 -1.941484,3.80647 -3.285156,4.85156 -1.343671,1.04507 -0.208985,4.57031 -0.208985,4.57031 0,0 -0.657968,0.69245 3.373047,0.16992 4.03103,-0.52259 7.433594,-1.05468 7.433594,-1.05468 0,0 0.502109,-2.68964 0.04492,-3.44727 -1.259992,-2.08799 -3.895193,-1.88038 -3.945313,-5.29102 -0.82113,-3.20989 0.68314,-13.02693 0.63086,-14.64453 -0.124142,-3.84123 -2.89724,-4.94628 -3.0625,-5.02148 z m -0.210938,3.74805 c 0.374317,9e-5 0.978828,0.82988 0.978516,1.77734 -3.21e-4,0.9475 -0.375664,1.25598 -0.75,1.25586 -0.37432,-1e-4 -0.853835,-0.29848 -0.853516,-1.2461 3.29e-4,-0.94743 0.250667,-1.78723 0.625,-1.7871 z" style="fill:#545258;fill-opacity:0.76556779;stroke:none;stroke-width:1.16003704px;stroke-linecap:butt;stroke-linejoin:miter;stroke-opacity:1"/>
                                            <path id="path2940" d="m 60.516363,254.76006 c -0.222586,-0.008 -0.472376,-0.006 -0.753906,0.01 -2.252255,0.12871 -2.67136,3.76573 -2.34961,4.44141 0.03217,0.9009 3.278544,13.42702 1.869141,16.97851 -2.03613,2.77731 -4.322266,2.54883 -4.322266,2.54883 l -0.0293,-0.0234 c -0.94954,1.26452 0.0332,4.32031 0.0332,4.32031 0,0 -0.657968,0.69245 3.373047,0.16992 4.03103,-0.52259 7.433594,-1.05468 7.433594,-1.05468 0,0 0.502111,-2.68964 0.04492,-3.44727 -1.259992,-2.08799 -3.895193,-1.88037 -3.945313,-5.29101 -0.82113,-3.20989 0.68314,-13.02694 0.63086,-14.64454 -0.06361,-1.96815 -0.821007,-3.21163 -1.56836,-3.97265 -0.130878,-0.0149 -0.25853,-0.0296 -0.416015,-0.0352 z m -0.804688,2.60156 c 0.274384,0.003 0.61303,0.14427 0.871094,0.69727 0.516127,1.10599 -0.03661,2.46997 -0.552734,2.6543 -0.09977,0.0356 -0.189286,-0.0895 -0.271485,-0.27149 -0.09619,0.0548 -0.198609,0.086 -0.302734,0.0859 -0.37432,-1e-4 -0.853835,-0.29847 -0.853516,-1.24609 7.8e-5,-0.22447 0.01455,-0.44384 0.04102,-0.64649 0.08525,-0.65268 0.298339,-1.14072 0.583984,-1.14062 0,0 0.209992,-0.13565 0.484375,-0.13282 z" style="fill:#545258;fill-opacity:0.76556779;stroke:none;stroke-width:1px;stroke-linecap:butt;stroke-linejoin:miter;stroke-opacity:1"/>
                                            <path id="path2942" d="m 59.492163,270.48525 c 0,0 0.844814,7.05313 -3.633621,8.03177 0,0 4.91868,0.17193 3.633621,-8.03177 z" style="fill:#545258;fill-opacity:0.76556779;stroke:none;stroke-width:1px;stroke-linecap:butt;stroke-linejoin:miter;stroke-opacity:1"/>
                                            <path id="path2944" d="m 58.506298,255.22269 c -0.256116,-0.11269 -2.74439,3.71017 0.398781,10.65245 -1.880177,-7.15205 -1.492232,-6.66391 -0.398781,-10.65245 z" style="fill:#545258;fill-opacity:0.76556779;stroke:none;stroke-width:1px;stroke-linecap:butt;stroke-linejoin:miter;stroke-opacity:1"/>
                                            <g id="g2962" style="display:inline;fill:#545258;fill-opacity:0.76556779" transform="rotate(-1.531607,-1550.5286,-1502.2863)">
                                                <path id="path2946" d="m 7.2900261,327.88991 2.0085084,0.36069 8.1508325,-1.11103 -8.159808,1.4255 z" style="fill:#545258;fill-opacity:0.76556779;stroke:none;stroke-width:1.05632043px;stroke-linecap:butt;stroke-linejoin:miter;stroke-opacity:1"/>
                                                <path id="path2948" d="m 7.2900261,327.75419 2.0085084,0.36069 8.1508325,-1.11103 -8.159808,1.4255 z" style="fill:#545258;fill-opacity:0.76556779;stroke:none;stroke-width:1.05632043px;stroke-linecap:butt;stroke-linejoin:miter;stroke-opacity:1"/>
                                                <path id="path2950" d="m 7.510997,328.88428 2.0085084,0.36069 8.1508326,-1.11103 -8.1598081,1.4255 z" style="fill:#545258;fill-opacity:0.76556779;stroke:none;stroke-width:1.05632043px;stroke-linecap:butt;stroke-linejoin:miter;stroke-opacity:1"/>
                                                <path id="path2952" d="m 7.510997,328.74856 2.0085084,0.36069 8.1508326,-1.11103 -8.1598081,1.4255 z" style="fill:#545258;fill-opacity:0.76556779;stroke:none;stroke-width:1.05632043px;stroke-linecap:butt;stroke-linejoin:miter;stroke-opacity:1"/>
                                                <path id="path2954" d="m 7.5551912,329.92284 2.0085084,0.36069 8.1508324,-1.11103 -8.1598079,1.4255 z" style="fill:#545258;fill-opacity:0.76556779;stroke:none;stroke-width:1.05632043px;stroke-linecap:butt;stroke-linejoin:miter;stroke-opacity:1"/>
                                                <path id="path2956" d="m 7.5551912,329.78712 2.0085084,0.36069 8.1508324,-1.11103 -8.1598079,1.4255 z" style="fill:#545258;fill-opacity:0.76556779;stroke:none;stroke-width:1.05632043px;stroke-linecap:butt;stroke-linejoin:miter;stroke-opacity:1"/>
                                                <path id="path2958" d="m 7.2106133,326.77681 2.0085084,0.36069 8.1508323,-1.11103 -8.1598078,1.4255 z" style="fill:#545258;fill-opacity:0.76556779;stroke:none;stroke-width:1.05632043px;stroke-linecap:butt;stroke-linejoin:miter;stroke-opacity:1"/>
                                                <path id="path2960" d="m 7.2106133,326.64109 2.0085084,0.36069 8.1508323,-1.11103 -8.1598078,1.4255 z" style="fill:#545258;fill-opacity:0.76556779;stroke:none;stroke-width:1.05632043px;stroke-linecap:butt;stroke-linejoin:miter;stroke-opacity:1"/>
                                            </g>
                                            <path id="path2964" d="m 57.889739,290.52064 c 0,0 0.07138,2.97407 2.010469,5.29384 0,0 -2.236498,-2.33167 -2.010469,-5.29384 z" style="fill:#545258;fill-opacity:0.76556779;stroke:none;stroke-width:1px;stroke-linecap:butt;stroke-linejoin:miter;stroke-opacity:1"/>
                                            <path id="path2966" d="m 56.441961,289.41431 c 0,0 0.07138,2.97407 2.010469,5.29384 0,0 -2.236498,-2.33167 -2.010469,-5.29384 z" style="fill:#545258;fill-opacity:0.76556779;stroke:none;stroke-width:1px;stroke-linecap:butt;stroke-linejoin:miter;stroke-opacity:1"/>
                                            <path id="path2968" d="m 60.577239,289.69252 c 0,0 0.07138,2.97407 2.010469,5.29384 0,0 -2.236498,-2.33167 -2.010469,-5.29384 z" style="fill:#545258;fill-opacity:0.76556779;stroke:none;stroke-width:1px;stroke-linecap:butt;stroke-linejoin:miter;stroke-opacity:1"/>
                                            <path id="path2970" d="m 57.990435,290.16519 c 0,0 0.07138,2.97407 2.010469,5.29384 0,0 -2.236498,-2.33167 -2.010469,-5.29384 z" style="fill:#545258;fill-opacity:0.76556779;stroke:none;stroke-width:1px;stroke-linecap:butt;stroke-linejoin:miter;stroke-opacity:1"/>
                                            <path id="path2972" d="m 60.75606,289.33707 c 0,0 0.07138,2.97407 2.010469,5.29384 0,0 -2.236498,-2.33167 -2.010469,-5.29384 z" style="fill:#545258;fill-opacity:0.76556779;stroke:none;stroke-width:1px;stroke-linecap:butt;stroke-linejoin:miter;stroke-opacity:1"/>
                                            <path id="path2974" d="m 60.75606,289.33707 c 0,0 0.07138,2.97407 2.010469,5.29384 0,0 -2.236498,-2.33167 -2.010469,-5.29384 z" style="fill:#545258;fill-opacity:0.76556779;stroke:none;stroke-width:1px;stroke-linecap:butt;stroke-linejoin:miter;stroke-opacity:1"/>
                                            <path id="path2976" d="m 60.577239,289.69252 c 0,0 -0.174289,2.96985 1.566763,5.44167 0,0 -2.036461,-2.50825 -1.566763,-5.44167 z" style="fill:#545258;fill-opacity:0.76556779;stroke:none;stroke-width:1px;stroke-linecap:butt;stroke-linejoin:miter;stroke-opacity:1"/>
                                            <path id="path2978" d="m 58.293157,291.08438 c 0,0 -0.174289,2.96985 1.566763,5.44167 0,0 -2.036461,-2.50825 -1.566763,-5.44167 z" style="fill:#545258;fill-opacity:0.76556779;stroke:none;stroke-width:1px;stroke-linecap:butt;stroke-linejoin:miter;stroke-opacity:1"/>
                                            <path id="path2980" d="m 62.566391,288.68278 c 0,0 0.0278,1.63073 0.783055,2.90269 0,0 -0.871091,-1.27849 -0.783055,-2.90269 z" style="fill:#545258;fill-opacity:0.76556779;stroke:none;stroke-width:0.46212807px;stroke-linecap:butt;stroke-linejoin:miter;stroke-opacity:1"/>
                                        </g>
                                    </g>
                                    <path id="path2986" d="m 57.770777,293.74453 c 0,0 0.125933,0.77445 2.100713,0.21532 1.97478,-0.55912 5.954845,-2.62275 7.963525,-2.55889 0.42262,-0.15331 0.548337,1.57655 1.309698,1.95723 0.761361,0.38068 1.355064,-0.0776 1.355064,-0.0776 l 2.786498,-0.9875 c 1.351236,-0.47886 2.136014,2.11608 -0.974356,2.51864 -4.472419,0.61324 -11.510291,8.22706 -14.624674,6.32074 -2.043883,-1.63817 2.315008,-3.42612 2.194732,-3.49867 -1.118763,-0.67485 -2.1112,-3.88925 -2.1112,-3.88925 z" style="fill:#545258;fill-opacity:0.76556779;stroke:none;stroke-width:1px;stroke-linecap:butt;stroke-linejoin:miter;stroke-opacity:1"/>
                                    <path id="path2988" d="m 57.991058,294.10471 c 1.434736,0.8049 4.112172,-0.94264 3.676018,-0.76198 -2.233481,0.92514 -2.354775,1.03236 -3.676018,0.76198 z" style="fill:#545258;fill-opacity:0.76556779;stroke:none;stroke-width:1px;stroke-linecap:butt;stroke-linejoin:miter;stroke-opacity:1"/>
                                    <path id="path2990" d="m 59.97935,297.71585 c -0.696314,-0.9771 -0.303355,-1.23841 -0.923655,-2.0075 -0.720263,-0.89303 0.551813,1.82098 0.923655,2.0075 z" style="fill:#545258;fill-opacity:0.76556779;stroke:none;stroke-width:0.78565556px;stroke-linecap:butt;stroke-linejoin:miter;stroke-opacity:1"/>
                                    <path id="path2992" d="m 57.351777,300.2078 c 0,0 1.025031,-2.22219 2.772552,-2.0809 1.747522,0.14128 -2.301818,0.45323 -2.772552,2.0809 z" style="fill:#545258;fill-opacity:0.76556779;stroke:none;stroke-width:1px;stroke-linecap:butt;stroke-linejoin:miter;stroke-opacity:1"/>
                                    <path id="path2994" d="m 70.1245,293.8701 c 0,0 1.998811,1.41195 3.441559,0.41583 1.442754,-0.99611 -2.220048,0.7584 -3.441559,-0.41583 z" style="fill:#545258;fill-opacity:0.76556779;stroke:none;stroke-width:1px;stroke-linecap:butt;stroke-linejoin:miter;stroke-opacity:1"/>
                                </g>
                            </g>
                        </g>
                        <g id="g2928">
                            <g id="g2891">
                                <g id="g2855">
                                    <g id="g2748">
                                        <g id="g2820">
                                            <path id="path2400" d="m 56.28731,289.21207 10.349722,-1.66989 c 0,0 0.69444,2.81413 2.134605,6.02679 -0.166172,0.94164 -7.269464,3.29531 -9.045466,3.21458 -2.368003,-2.17964 -3.438861,-7.57148 -3.438861,-7.57148 z" style="fill:#fbf6b1;fill-opacity:1;stroke:none;stroke-width:1px;stroke-linecap:butt;stroke-linejoin:miter;stroke-opacity:1"/>
                                            <path id="path2720" d="m 62.480641,288.99064 c 0,0 0.07138,1.50374 2.010469,2.67666 0,0 -2.236498,-1.17893 -2.010469,-2.67666 z" style="fill:#ffffb3;fill-opacity:1;stroke:none;stroke-width:0.71106839px;stroke-linecap:butt;stroke-linejoin:miter;stroke-opacity:1"/>
                                            <path id="path2402" d="m 56.28731,289.21207 c 0,0 0.499561,0.53628 1.184571,0.49208 1.425262,0.0884 9.507656,-1.5322 9.165151,-2.16197 -0.04419,-0.93913 -0.867346,-5.39208 -0.867346,-5.39208 -1.485736,-0.98096 -10.204126,2.06453 -10.806497,0.88617 0.612555,3.99084 1.324121,6.1758 1.324121,6.1758 z" style="fill:#ced3d3;fill-opacity:1;stroke:none;stroke-width:1px;stroke-linecap:butt;stroke-linejoin:miter;stroke-opacity:1"/>
                                            <path id="path2549" d="m 57.002531,283.93849 1.157497,4.58065 c 0,0 0.204327,0.79965 0.156029,0.0433 -0.04835,-0.75627 -1.192613,-4.68127 -1.192613,-4.68127 0,0 -0.128527,-0.61134 -0.12097,0.057 z" style="fill:#fff8ff;fill-opacity:1;stroke:none;stroke-width:0.67059511px;stroke-linecap:butt;stroke-linejoin:miter;stroke-opacity:1"/>
                                            <path id="path2410" d="m 59.438238,253.74639 c 0,0 -2.724325,0.3352 -3.195313,4.44336 -0.282639,2.4653 1.990896,13.78158 2.214844,15.42383 0.223942,1.6423 -1.941484,3.80647 -3.285156,4.85156 -1.343671,1.04507 -0.208985,4.57031 -0.208985,4.57031 0,0 -0.657968,0.69245 3.373047,0.16992 4.03103,-0.52259 7.433594,-1.05468 7.433594,-1.05468 0,0 0.502109,-2.68964 0.04492,-3.44727 -1.259992,-2.08799 -3.895193,-1.88038 -3.945313,-5.29102 -0.82113,-3.20989 0.68314,-13.02693 0.63086,-14.64453 -0.124142,-3.84123 -2.89724,-4.94628 -3.0625,-5.02148 z m -0.210938,3.74805 c 0.374317,9e-5 0.978828,0.82988 0.978516,1.77734 -3.21e-4,0.9475 -0.375664,1.25598 -0.75,1.25586 -0.37432,-1e-4 -0.853835,-0.29848 -0.853516,-1.2461 3.29e-4,-0.94743 0.250667,-1.78723 0.625,-1.7871 z" style="fill:#d99296;fill-opacity:0.76556779;stroke:none;stroke-width:1.16003704px;stroke-linecap:butt;stroke-linejoin:miter;stroke-opacity:1"/>
                                            <path id="path2437" d="m 60.516363,254.76006 c -0.222586,-0.008 -0.472376,-0.006 -0.753906,0.01 -2.252255,0.12871 -2.67136,3.76573 -2.34961,4.44141 0.03217,0.9009 3.278544,13.42702 1.869141,16.97851 -2.03613,2.77731 -4.322266,2.54883 -4.322266,2.54883 l -0.0293,-0.0234 c -0.94954,1.26452 0.0332,4.32031 0.0332,4.32031 0,0 -0.657968,0.69245 3.373047,0.16992 4.03103,-0.52259 7.433594,-1.05468 7.433594,-1.05468 0,0 0.502111,-2.68964 0.04492,-3.44727 -1.259992,-2.08799 -3.895193,-1.88037 -3.945313,-5.29101 -0.82113,-3.20989 0.68314,-13.02694 0.63086,-14.64454 -0.06361,-1.96815 -0.821007,-3.21163 -1.56836,-3.97265 -0.130878,-0.0149 -0.25853,-0.0296 -0.416015,-0.0352 z m -0.804688,2.60156 c 0.274384,0.003 0.61303,0.14427 0.871094,0.69727 0.516127,1.10599 -0.03661,2.46997 -0.552734,2.6543 -0.09977,0.0356 -0.189286,-0.0895 -0.271485,-0.27149 -0.09619,0.0548 -0.198609,0.086 -0.302734,0.0859 -0.37432,-1e-4 -0.853835,-0.29847 -0.853516,-1.24609 7.8e-5,-0.22447 0.01455,-0.44384 0.04102,-0.64649 0.08525,-0.65268 0.298339,-1.14072 0.583984,-1.14062 0,0 0.209992,-0.13565 0.484375,-0.13282 z" style="fill:#f99b98;fill-opacity:1;stroke:none;stroke-width:1px;stroke-linecap:butt;stroke-linejoin:miter;stroke-opacity:1"/>
                                            <path id="path2486" d="m 59.492163,270.48525 c 0,0 0.844814,7.05313 -3.633621,8.03177 0,0 4.91868,0.17193 3.633621,-8.03177 z" style="fill:#ffffff;fill-opacity:0.76556779;stroke:none;stroke-width:1px;stroke-linecap:butt;stroke-linejoin:miter;stroke-opacity:1"/>
                                            <path id="path2488" d="m 58.506298,255.22269 c -0.256116,-0.11269 -2.74439,3.71017 0.398781,10.65245 -1.880177,-7.15205 -1.492232,-6.66391 -0.398781,-10.65245 z" style="fill:#ffffff;fill-opacity:0.76556779;stroke:none;stroke-width:1px;stroke-linecap:butt;stroke-linejoin:miter;stroke-opacity:1"/>
                                            <g id="g2567" style="display:inline" transform="rotate(-1.531607,-1550.5286,-1502.2863)">
                                                <path id="path2529" d="m 7.2900261,327.88991 2.0085084,0.36069 8.1508325,-1.11103 -8.159808,1.4255 z" style="fill:#ffffff;fill-opacity:1;stroke:none;stroke-width:1.05632043px;stroke-linecap:butt;stroke-linejoin:miter;stroke-opacity:1"/>
                                                <path id="path2531" d="m 7.2900261,327.75419 2.0085084,0.36069 8.1508325,-1.11103 -8.159808,1.4255 z" style="fill:#767474;fill-opacity:1;stroke:none;stroke-width:1.05632043px;stroke-linecap:butt;stroke-linejoin:miter;stroke-opacity:1"/>
                                                <path id="path2535" d="m 7.510997,328.88428 2.0085084,0.36069 8.1508326,-1.11103 -8.1598081,1.4255 z" style="fill:#ffffff;fill-opacity:1;stroke:none;stroke-width:1.05632043px;stroke-linecap:butt;stroke-linejoin:miter;stroke-opacity:1"/>
                                                <path id="path2537" d="m 7.510997,328.74856 2.0085084,0.36069 8.1508326,-1.11103 -8.1598081,1.4255 z" style="fill:#767474;fill-opacity:1;stroke:none;stroke-width:1.05632043px;stroke-linecap:butt;stroke-linejoin:miter;stroke-opacity:1"/>
                                                <path id="path2541" d="m 7.5551912,329.92284 2.0085084,0.36069 8.1508324,-1.11103 -8.1598079,1.4255 z" style="fill:#ffffff;fill-opacity:1;stroke:none;stroke-width:1.05632043px;stroke-linecap:butt;stroke-linejoin:miter;stroke-opacity:1"/>
                                                <path id="path2543" d="m 7.5551912,329.78712 2.0085084,0.36069 8.1508324,-1.11103 -8.1598079,1.4255 z" style="fill:#767474;fill-opacity:1;stroke:none;stroke-width:1.05632043px;stroke-linecap:butt;stroke-linejoin:miter;stroke-opacity:1"/>
                                                <path id="path2513" d="m 7.2106133,326.77681 2.0085084,0.36069 8.1508323,-1.11103 -8.1598078,1.4255 z" style="fill:#ffffff;fill-opacity:1;stroke:none;stroke-width:1.05632043px;stroke-linecap:butt;stroke-linejoin:miter;stroke-opacity:1"/>
                                                <path id="path2523" d="m 7.2106133,326.64109 2.0085084,0.36069 8.1508323,-1.11103 -8.1598078,1.4255 z" style="fill:#767474;fill-opacity:1;stroke:none;stroke-width:1.05632043px;stroke-linecap:butt;stroke-linejoin:miter;stroke-opacity:1"/>
                                            </g>
                                            <path id="path2694" d="m 57.889739,290.52064 c 0,0 0.07138,2.97407 2.010469,5.29384 0,0 -2.236498,-2.33167 -2.010469,-5.29384 z" style="fill:#ffffb3;fill-opacity:1;stroke:none;stroke-width:1px;stroke-linecap:butt;stroke-linejoin:miter;stroke-opacity:1"/>
                                            <path id="path2696" d="m 56.441961,289.41431 c 0,0 0.07138,2.97407 2.010469,5.29384 0,0 -2.236498,-2.33167 -2.010469,-5.29384 z" style="fill:#eac895;fill-opacity:1;stroke:none;stroke-width:1px;stroke-linecap:butt;stroke-linejoin:miter;stroke-opacity:1"/>
                                            <path id="path2704" d="m 60.577239,289.69252 c 0,0 0.07138,2.97407 2.010469,5.29384 0,0 -2.236498,-2.33167 -2.010469,-5.29384 z" style="fill:#ffffb3;fill-opacity:1;stroke:none;stroke-width:1px;stroke-linecap:butt;stroke-linejoin:miter;stroke-opacity:1"/>
                                            <path id="path2708" d="m 57.990435,290.16519 c 0,0 0.07138,2.97407 2.010469,5.29384 0,0 -2.236498,-2.33167 -2.010469,-5.29384 z" style="fill:#eac895;fill-opacity:1;stroke:none;stroke-width:1px;stroke-linecap:butt;stroke-linejoin:miter;stroke-opacity:1"/>
                                            <path id="path2710" d="m 60.75606,289.33707 c 0,0 0.07138,2.97407 2.010469,5.29384 0,0 -2.236498,-2.33167 -2.010469,-5.29384 z" style="fill:#eac895;fill-opacity:1;stroke:none;stroke-width:1px;stroke-linecap:butt;stroke-linejoin:miter;stroke-opacity:1"/>
                                            <path id="path2712" d="m 60.75606,289.33707 c 0,0 0.07138,2.97407 2.010469,5.29384 0,0 -2.236498,-2.33167 -2.010469,-5.29384 z" style="fill:#eac895;fill-opacity:1;stroke:none;stroke-width:1px;stroke-linecap:butt;stroke-linejoin:miter;stroke-opacity:1"/>
                                            <path id="path2714" d="m 60.577239,289.69252 c 0,0 -0.174289,2.96985 1.566763,5.44167 0,0 -2.036461,-2.50825 -1.566763,-5.44167 z" style="fill:#eac895;fill-opacity:1;stroke:none;stroke-width:1px;stroke-linecap:butt;stroke-linejoin:miter;stroke-opacity:1"/>
                                            <path id="path2716" d="m 58.293157,291.08438 c 0,0 -0.174289,2.96985 1.566763,5.44167 0,0 -2.036461,-2.50825 -1.566763,-5.44167 z" style="fill:#eac895;fill-opacity:1;stroke:none;stroke-width:1px;stroke-linecap:butt;stroke-linejoin:miter;stroke-opacity:1"/>
                                            <path id="path2718" d="m 62.566391,288.68278 c 0,0 0.0278,1.63073 0.783055,2.90269 0,0 -0.871091,-1.27849 -0.783055,-2.90269 z" style="fill:#eac895;fill-opacity:1;stroke:none;stroke-width:0.46212807px;stroke-linecap:butt;stroke-linejoin:miter;stroke-opacity:1"/>
                                        </g>
                                    </g>
                                    <path id="path2750" d="m 57.770777,293.74453 c 0,0 0.125933,0.77445 2.100713,0.21532 1.97478,-0.55912 5.954845,-2.62275 7.963525,-2.55889 0.42262,-0.15331 0.548337,1.57655 1.309698,1.95723 0.761361,0.38068 1.355064,-0.0776 1.355064,-0.0776 l 2.786498,-0.9875 c 1.351236,-0.47886 2.136014,2.11608 -0.974356,2.51864 -4.472419,0.61324 -11.510291,8.22706 -14.624674,6.32074 -2.043883,-1.63817 2.315008,-3.42612 2.194732,-3.49867 -1.118763,-0.67485 -2.1112,-3.88925 -2.1112,-3.88925 z" style="fill:#fb74b1;fill-opacity:1;stroke:none;stroke-width:1px;stroke-linecap:butt;stroke-linejoin:miter;stroke-opacity:1"/>
                                    <path id="path2784" d="m 57.991058,294.10471 c 1.434736,0.8049 4.112172,-0.94264 3.676018,-0.76198 -2.233481,0.92514 -2.354775,1.03236 -3.676018,0.76198 z" style="fill:#ffffff;fill-opacity:1;stroke:none;stroke-width:1px;stroke-linecap:butt;stroke-linejoin:miter;stroke-opacity:1"/>
                                    <path id="path2788" d="m 59.97935,297.71585 c -0.696314,-0.9771 -0.303355,-1.23841 -0.923655,-2.0075 -0.720263,-0.89303 0.551813,1.82098 0.923655,2.0075 z" style="fill:#ffffff;fill-opacity:1;stroke:none;stroke-width:0.78565556px;stroke-linecap:butt;stroke-linejoin:miter;stroke-opacity:1"/>
                                    <path id="path2790" d="m 57.351777,300.2078 c 0,0 1.025031,-2.22219 2.772552,-2.0809 1.747522,0.14128 -2.301818,0.45323 -2.772552,2.0809 z" style="fill:#ffffff;fill-opacity:1;stroke:none;stroke-width:1px;stroke-linecap:butt;stroke-linejoin:miter;stroke-opacity:1"/>
                                    <path id="path2792" d="m 70.1245,293.8701 c 0,0 1.998811,1.41195 3.441559,0.41583 1.442754,-0.99611 -2.220048,0.7584 -3.441559,-0.41583 z" style="fill:#ffffff;fill-opacity:1;stroke:none;stroke-width:1px;stroke-linecap:butt;stroke-linejoin:miter;stroke-opacity:1"/>
                                </g>
                            </g>
                        </g>
                    </g>
                </g>
            </g>
        </g>
    </g>
</svg>
