<?xml version="1.0" encoding="UTF-8" standalone="no"?>
<svg xmlns="http://www.w3.org/2000/svg" viewBox="0 0 100 100">
    <defs id="defs2"/>
    <g id="g935" transform="translate(8.5167633,0.01367185)"/>
    <g id="layer2" style="display:inline">
        <g id="layer1" style="opacity:1" transform="translate(0,-270.54164)">
            <rect id="rect907" width="98.442345" height="98.073212" x="0.77882767" y="271.50504" style="opacity:0.98400005;fill:#719ad3;fill-opacity:1;stroke:#000000;stroke-width:0.9800567;stroke-linecap:square;stroke-linejoin:bevel;stroke-miterlimit:4;stroke-dasharray:none;stroke-opacity:1"/>
        </g>
    </g>
    <g id="layer3" style="display:inline">
        <g id="g1019" transform="matrix(0.54725162,0,0,0.54725162,22.020298,17.520617)">
            <g id="g1041" transform="translate(0.11758825,19.738065)">
                <g id="g974" style="display:inline" transform="matrix(1.827313,0,0,1.827313,-24.786297,-28.253476)">
                    <g id="g923" transform="translate(-10.189865,-5.6764779)">
                        <circle id="path879" cx="42.084942" cy="28.957529" r="7.2072072" style="opacity:0.98400005;fill:#407695;fill-opacity:1;stroke:#ffffff;stroke-width:1;stroke-linecap:round;stroke-linejoin:bevel;stroke-miterlimit:4;stroke-dasharray:none;stroke-opacity:1"/>
                        <path id="path889" d="m 36.656162,34.850797 c 0.262227,0.0044 0.345839,0.01459 0.416015,0.02148 2.886942,2.476209 7.154113,2.46582 10.03125,-0.0078 0.690138,-0.04729 3.285134,-0.109026 5.595703,1.570313 1.334673,0.970049 2.544852,2.510866 3.177735,5.056641 0.615499,2.475853 0.661335,5.919695 -0.332031,10.646484 H 28.466708 c -0.993366,-4.726789 -0.94753,-8.170631 -0.332031,-10.646484 0.632883,-2.545775 1.843062,-4.086592 3.177735,-5.056641 2.002008,-1.455074 4.313188,-1.601439 5.34375,-1.583985 z" style="color:#000000;font-style:normal;font-variant:normal;font-weight:normal;font-stretch:normal;font-size:medium;line-height:normal;font-family:sans-serif;font-variant-ligatures:normal;font-variant-position:normal;font-variant-caps:normal;font-variant-numeric:normal;font-variant-alternates:normal;font-feature-settings:normal;text-indent:0;text-align:start;text-decoration:none;text-decoration-line:none;text-decoration-style:solid;text-decoration-color:#000000;letter-spacing:normal;word-spacing:normal;text-transform:none;writing-mode:lr-tb;direction:ltr;text-orientation:mixed;dominant-baseline:auto;baseline-shift:baseline;text-anchor:start;white-space:normal;shape-padding:0;clip-rule:nonzero;display:inline;overflow:visible;visibility:visible;opacity:1;isolation:auto;mix-blend-mode:normal;color-interpolation:sRGB;color-interpolation-filters:linearRGB;solid-color:#000000;solid-opacity:1;vector-effect:none;fill:#0072b5;fill-opacity:1;fill-rule:nonzero;stroke:#ffffff;stroke-width:1px;stroke-linecap:butt;stroke-linejoin:miter;stroke-miterlimit:4;stroke-dasharray:none;stroke-dashoffset:0;stroke-opacity:1;color-rendering:auto;image-rendering:auto;shape-rendering:auto;text-rendering:auto;enable-background:accumulate"/>
                    </g>
                    <g id="g929" transform="translate(9.1377087,-5.5341049)">
                        <circle id="circle925" cx="42.084942" cy="28.957529" r="7.2072072" style="opacity:0.98400005;fill:#407695;fill-opacity:1;stroke:#ffffff;stroke-width:1;stroke-linecap:round;stroke-linejoin:bevel;stroke-miterlimit:4;stroke-dasharray:none;stroke-opacity:1"/>
                        <path id="path927" d="m 36.656162,34.850797 c 0.262227,0.0044 0.345839,0.01459 0.416015,0.02148 2.886942,2.476209 7.154113,2.46582 10.03125,-0.0078 0.690138,-0.04729 3.285134,-0.109026 5.595703,1.570313 1.334673,0.970049 2.544852,2.510866 3.177735,5.056641 0.615499,2.475853 0.661335,5.919695 -0.332031,10.646484 H 28.466708 c -0.993366,-4.726789 -0.94753,-8.170631 -0.332031,-10.646484 0.632883,-2.545775 1.843062,-4.086592 3.177735,-5.056641 2.002008,-1.455074 4.313188,-1.601439 5.34375,-1.583985 z" style="color:#000000;font-style:normal;font-variant:normal;font-weight:normal;font-stretch:normal;font-size:medium;line-height:normal;font-family:sans-serif;font-variant-ligatures:normal;font-variant-position:normal;font-variant-caps:normal;font-variant-numeric:normal;font-variant-alternates:normal;font-feature-settings:normal;text-indent:0;text-align:start;text-decoration:none;text-decoration-line:none;text-decoration-style:solid;text-decoration-color:#000000;letter-spacing:normal;word-spacing:normal;text-transform:none;writing-mode:lr-tb;direction:ltr;text-orientation:mixed;dominant-baseline:auto;baseline-shift:baseline;text-anchor:start;white-space:normal;shape-padding:0;clip-rule:nonzero;display:inline;overflow:visible;visibility:visible;opacity:1;isolation:auto;mix-blend-mode:normal;color-interpolation:sRGB;color-interpolation-filters:linearRGB;solid-color:#000000;solid-opacity:1;vector-effect:none;fill:#0072b5;fill-opacity:1;fill-rule:nonzero;stroke:#ffffff;stroke-width:1px;stroke-linecap:butt;stroke-linejoin:miter;stroke-miterlimit:4;stroke-dasharray:none;stroke-dashoffset:0;stroke-opacity:1;color-rendering:auto;image-rendering:auto;shape-rendering:auto;text-rendering:auto;enable-background:accumulate"/>
                    </g>
                    <circle id="circle931" cx="42.084942" cy="28.957529" r="7.2072072" style="opacity:0.98400005;fill:#407695;fill-opacity:1;stroke:#ffffff;stroke-width:1;stroke-linecap:round;stroke-linejoin:bevel;stroke-miterlimit:4;stroke-dasharray:none;stroke-opacity:1"/>
                    <path id="path933" d="m 36.656162,34.850797 c 0.262227,0.0044 0.345839,0.01459 0.416015,0.02148 2.886942,2.476209 7.154113,2.46582 10.03125,-0.0078 0.690138,-0.04729 3.285134,-0.109026 5.595703,1.570313 1.334673,0.970049 2.544852,2.510866 3.177735,5.056641 0.615499,2.475853 0.661335,5.919695 -0.332031,10.646484 H 28.466708 c -0.993366,-4.726789 -0.94753,-8.170631 -0.332031,-10.646484 0.632883,-2.545775 1.843062,-4.086592 3.177735,-5.056641 2.002008,-1.455074 4.313188,-1.601439 5.34375,-1.583985 z" style="color:#000000;font-style:normal;font-variant:normal;font-weight:normal;font-stretch:normal;font-size:medium;line-height:normal;font-family:sans-serif;font-variant-ligatures:normal;font-variant-position:normal;font-variant-caps:normal;font-variant-numeric:normal;font-variant-alternates:normal;font-feature-settings:normal;text-indent:0;text-align:start;text-decoration:none;text-decoration-line:none;text-decoration-style:solid;text-decoration-color:#000000;letter-spacing:normal;word-spacing:normal;text-transform:none;writing-mode:lr-tb;direction:ltr;text-orientation:mixed;dominant-baseline:auto;baseline-shift:baseline;text-anchor:start;white-space:normal;shape-padding:0;clip-rule:nonzero;display:inline;overflow:visible;visibility:visible;opacity:1;isolation:auto;mix-blend-mode:normal;color-interpolation:sRGB;color-interpolation-filters:linearRGB;solid-color:#000000;solid-opacity:1;vector-effect:none;fill:#0072b5;fill-opacity:1;fill-rule:nonzero;stroke:#ffffff;stroke-width:1px;stroke-linecap:butt;stroke-linejoin:miter;stroke-miterlimit:4;stroke-dasharray:none;stroke-dashoffset:0;stroke-opacity:1;color-rendering:auto;image-rendering:auto;shape-rendering:auto;text-rendering:auto;enable-background:accumulate"/>
                </g>
                <circle id="path1015" cx="52.199417" cy="67.521988" r="10.786317" style="opacity:0.98400005;fill:#ffffff;fill-opacity:1;stroke:#ffffff;stroke-width:1.42150104;stroke-linecap:round;stroke-linejoin:bevel;stroke-miterlimit:4;stroke-dasharray:none;stroke-opacity:1"/>
                <path id="rect949" d="m 56.910102,63.315132 a 3.3215291,3.3215291 0 0 0 -4.697351,0 3.3215291,3.3215291 0 0 0 -0.03806,0.04084 l -0.0014,-0.0014 -4.65e-4,4.65e-4 a 3.3215291,3.3215291 0 0 0 -4.684507,0.01193 3.3215291,3.3215291 0 0 0 -0.01193,4.684507 l -4.65e-4,4.65e-4 0.01239,0.01239 4.684966,4.684966 4.697352,-4.697352 -0.0018,-0.0018 a 3.3215291,3.3215291 0 0 0 0.04128,-0.03762 3.3215291,3.3215291 0 0 0 0,-4.697351 z" style="opacity:0.98400005;fill:#d2003b;fill-opacity:1;stroke:#ffffff;stroke-width:1;stroke-linecap:round;stroke-linejoin:bevel;stroke-miterlimit:4;stroke-dasharray:none;stroke-opacity:1"/>
            </g>
        </g>
    </g>
</svg>
